<?xml version="1.0" encoding="UTF-8" standalone="no"?>
<!DOCTYPE svg PUBLIC "-//W3C//DTD SVG 1.1//EN"
 "http://www.w3.org/Graphics/SVG/1.1/DTD/svg11.dtd">
<!-- Generated by graphviz version 2.43.0 (0)
 -->
<!-- Pages: 1 -->
<svg width="1162pt" height="980pt"
 viewBox="0.00 0.00 1162.38 980.00" xmlns="http://www.w3.org/2000/svg" xmlns:xlink="http://www.w3.org/1999/xlink">
<g id="graph0" class="graph" transform="scale(1 1) rotate(0) translate(4 976)">
<polygon fill="white" stroke="transparent" points="-4,4 -4,-976 1158.38,-976 1158.38,4 -4,4"/>
<!-- a0_m0 -->
<g id="node1" class="node">
<title>a0_m0</title>
<ellipse fill="none" stroke="black" cx="262.95" cy="-954" rx="40.89" ry="18"/>
<text text-anchor="middle" x="262.95" y="-950.3" font-family="Times,serif" font-size="14.00">a0_m0</text>
</g>
<!-- a1_m0 -->
<g id="node2" class="node">
<title>a1_m0</title>
<ellipse fill="none" stroke="black" cx="305.95" cy="-882" rx="40.89" ry="18"/>
<text text-anchor="middle" x="305.95" y="-878.3" font-family="Times,serif" font-size="14.00">a1_m0</text>
</g>
<!-- a0_m0&#45;&#45;a1_m0 -->
<g id="edge1" class="edge">
<title>a0_m0&#45;&#45;a1_m0</title>
<path fill="none" stroke="green" d="M273.14,-936.41C279.99,-925.25 288.99,-910.6 295.83,-899.47"/>
</g>
<!-- a2_m0 -->
<g id="node3" class="node">
<title>a2_m0</title>
<ellipse fill="none" stroke="black" cx="213.95" cy="-810" rx="40.89" ry="18"/>
<text text-anchor="middle" x="213.95" y="-806.3" font-family="Times,serif" font-size="14.00">a2_m0</text>
</g>
<!-- a0_m0&#45;&#45;a2_m0 -->
<g id="edge2" class="edge">
<title>a0_m0&#45;&#45;a2_m0</title>
<path fill="none" stroke="green" d="M257.13,-936.15C247.7,-908.82 229.18,-855.14 219.75,-827.82"/>
</g>
<!-- a1_m0&#45;&#45;a2_m0 -->
<g id="edge5" class="edge">
<title>a1_m0&#45;&#45;a2_m0</title>
<path fill="none" stroke="green" d="M286.44,-866.15C270.93,-854.36 249.33,-837.92 233.75,-826.07"/>
</g>
<!-- a1_m1 -->
<g id="node4" class="node">
<title>a1_m1</title>
<ellipse fill="none" stroke="black" cx="335.95" cy="-810" rx="40.89" ry="18"/>
<text text-anchor="middle" x="335.95" y="-806.3" font-family="Times,serif" font-size="14.00">a1_m1</text>
</g>
<!-- a1_m0&#45;&#45;a1_m1 -->
<g id="edge3" class="edge">
<title>a1_m0&#45;&#45;a1_m1</title>
<path fill="none" stroke="red" d="M313.21,-864.05C317.93,-853.05 324.05,-838.76 328.75,-827.79"/>
</g>
<!-- a1_m3 -->
<g id="node5" class="node">
<title>a1_m3</title>
<ellipse fill="none" stroke="black" cx="530.95" cy="-666" rx="40.89" ry="18"/>
<text text-anchor="middle" x="530.95" y="-662.3" font-family="Times,serif" font-size="14.00">a1_m3</text>
</g>
<!-- a1_m0&#45;&#45;a1_m3 -->
<g id="edge4" class="edge">
<title>a1_m0&#45;&#45;a1_m3</title>
<path fill="none" stroke="red" d="M330.17,-867.17C346.64,-857.24 368.53,-843.01 385.95,-828 440.65,-780.85 494.86,-713.86 518.55,-683.32"/>
</g>
<!-- a2_m4 -->
<g id="node10" class="node">
<title>a2_m4</title>
<ellipse fill="none" stroke="black" cx="174.95" cy="-738" rx="40.89" ry="18"/>
<text text-anchor="middle" x="174.95" y="-734.3" font-family="Times,serif" font-size="14.00">a2_m4</text>
</g>
<!-- a2_m0&#45;&#45;a2_m4 -->
<g id="edge11" class="edge">
<title>a2_m0&#45;&#45;a2_m4</title>
<path fill="none" stroke="red" d="M204.7,-792.41C198.58,-781.41 190.56,-767.03 184.39,-755.96"/>
</g>
<!-- a2_m6 -->
<g id="node11" class="node">
<title>a2_m6</title>
<ellipse fill="none" stroke="black" cx="40.95" cy="-594" rx="40.89" ry="18"/>
<text text-anchor="middle" x="40.95" y="-590.3" font-family="Times,serif" font-size="14.00">a2_m6</text>
</g>
<!-- a2_m0&#45;&#45;a2_m6 -->
<g id="edge12" class="edge">
<title>a2_m0&#45;&#45;a2_m6</title>
<path fill="none" stroke="red" d="M185.1,-796.9C166.17,-787.82 141.87,-773.9 124.95,-756 83.36,-712.01 56.91,-643.44 46.27,-611.91"/>
</g>
<!-- a1_m1&#45;&#45;a1_m3 -->
<g id="edge6" class="edge">
<title>a1_m1&#45;&#45;a1_m3</title>
<path fill="none" stroke="red" d="M356.45,-794.07C394,-766.73 473.38,-708.92 510.72,-681.73"/>
</g>
<!-- a3_m1 -->
<g id="node6" class="node">
<title>a3_m1</title>
<ellipse fill="none" stroke="black" cx="335.95" cy="-738" rx="40.89" ry="18"/>
<text text-anchor="middle" x="335.95" y="-734.3" font-family="Times,serif" font-size="14.00">a3_m1</text>
</g>
<!-- a1_m1&#45;&#45;a3_m1 -->
<g id="edge7" class="edge">
<title>a1_m1&#45;&#45;a3_m1</title>
<path fill="none" stroke="green" d="M335.95,-791.7C335.95,-780.85 335.95,-766.92 335.95,-756.1"/>
</g>
<!-- a3_m3 -->
<g id="node7" class="node">
<title>a3_m3</title>
<ellipse fill="none" stroke="black" cx="484.95" cy="-594" rx="40.89" ry="18"/>
<text text-anchor="middle" x="484.95" y="-590.3" font-family="Times,serif" font-size="14.00">a3_m3</text>
</g>
<!-- a1_m3&#45;&#45;a3_m3 -->
<g id="edge8" class="edge">
<title>a1_m3&#45;&#45;a3_m3</title>
<path fill="none" stroke="green" d="M520.05,-648.41C512.71,-637.25 503.09,-622.6 495.77,-611.47"/>
</g>
<!-- a4_m3 -->
<g id="node8" class="node">
<title>a4_m3</title>
<ellipse fill="none" stroke="black" cx="702.95" cy="-522" rx="40.89" ry="18"/>
<text text-anchor="middle" x="702.95" y="-518.3" font-family="Times,serif" font-size="14.00">a4_m3</text>
</g>
<!-- a1_m3&#45;&#45;a4_m3 -->
<g id="edge9" class="edge">
<title>a1_m3&#45;&#45;a4_m3</title>
<path fill="none" stroke="green" d="M564.01,-655.38C588.67,-646.96 622.07,-632.79 645.95,-612 669.33,-591.63 686.68,-559.37 695.77,-539.79"/>
</g>
<!-- a5_m3 -->
<g id="node9" class="node">
<title>a5_m3</title>
<ellipse fill="none" stroke="black" cx="796.95" cy="-450" rx="40.89" ry="18"/>
<text text-anchor="middle" x="796.95" y="-446.3" font-family="Times,serif" font-size="14.00">a5_m3</text>
</g>
<!-- a1_m3&#45;&#45;a5_m3 -->
<g id="edge10" class="edge">
<title>a1_m3&#45;&#45;a5_m3</title>
<path fill="none" stroke="green" d="M571.4,-663.18C642.69,-657.54 789.16,-634.41 852.95,-540 861.9,-526.74 859.27,-518.7 852.95,-504 846.07,-488.02 831.73,-474.6 819.29,-465.26"/>
</g>
<!-- a3_m1&#45;&#45;a3_m3 -->
<g id="edge19" class="edge">
<title>a3_m1&#45;&#45;a3_m3</title>
<path fill="none" stroke="red" d="M340.96,-719.98C347.45,-700.49 360.41,-668.6 380.95,-648 400.98,-627.91 430.2,-613.94 452.57,-605.41"/>
</g>
<!-- a3_m2 -->
<g id="node16" class="node">
<title>a3_m2</title>
<ellipse fill="none" stroke="black" cx="430.95" cy="-666" rx="40.89" ry="18"/>
<text text-anchor="middle" x="430.95" y="-662.3" font-family="Times,serif" font-size="14.00">a3_m2</text>
</g>
<!-- a3_m1&#45;&#45;a3_m2 -->
<g id="edge18" class="edge">
<title>a3_m1&#45;&#45;a3_m2</title>
<path fill="none" stroke="red" d="M356.09,-722.15C372.22,-710.28 394.71,-693.7 410.83,-681.82"/>
</g>
<!-- a3_m7 -->
<g id="node17" class="node">
<title>a3_m7</title>
<ellipse fill="none" stroke="black" cx="415.95" cy="-522" rx="40.89" ry="18"/>
<text text-anchor="middle" x="415.95" y="-518.3" font-family="Times,serif" font-size="14.00">a3_m7</text>
</g>
<!-- a3_m1&#45;&#45;a3_m7 -->
<g id="edge20" class="edge">
<title>a3_m1&#45;&#45;a3_m7</title>
<path fill="none" stroke="red" d="M337.78,-719.91C340.06,-701.72 344.69,-672.28 352.95,-648 366.79,-607.28 391.61,-563.11 405.61,-539.73"/>
</g>
<!-- a3_m9 -->
<g id="node18" class="node">
<title>a3_m9</title>
<ellipse fill="none" stroke="black" cx="258.95" cy="-378" rx="40.89" ry="18"/>
<text text-anchor="middle" x="258.95" y="-374.3" font-family="Times,serif" font-size="14.00">a3_m9</text>
</g>
<!-- a3_m1&#45;&#45;a3_m9 -->
<g id="edge21" class="edge">
<title>a3_m1&#45;&#45;a3_m9</title>
<path fill="none" stroke="red" d="M325.83,-720.19C311.22,-694.27 285.95,-642.57 285.95,-595 285.95,-595 285.95,-595 285.95,-521 285.95,-475.08 272.15,-422.25 264.28,-395.85"/>
</g>
<!-- a3_m3&#45;&#45;a4_m3 -->
<g id="edge29" class="edge">
<title>a3_m3&#45;&#45;a4_m3</title>
<path fill="none" stroke="green" d="M517.11,-582.67C558.33,-569.44 629.37,-546.63 670.65,-533.37"/>
</g>
<!-- a3_m3&#45;&#45;a5_m3 -->
<g id="edge30" class="edge">
<title>a3_m3&#45;&#45;a5_m3</title>
<path fill="none" stroke="green" d="M508.64,-579.14C540.73,-560.68 600.05,-527.62 652.95,-504 690.65,-487.17 735.49,-471.29 765,-461.38"/>
</g>
<!-- a3_m3&#45;&#45;a3_m7 -->
<g id="edge27" class="edge">
<title>a3_m3&#45;&#45;a3_m7</title>
<path fill="none" stroke="red" d="M469.29,-577.12C458,-565.66 442.82,-550.26 431.54,-538.82"/>
</g>
<!-- a3_m3&#45;&#45;a3_m9 -->
<g id="edge28" class="edge">
<title>a3_m3&#45;&#45;a3_m9</title>
<path fill="none" stroke="red" d="M484.29,-575.88C482.91,-557.14 478.7,-526.73 465.95,-504 428.97,-438.1 341.65,-403.07 293.07,-388.09"/>
</g>
<!-- a4_m3&#45;&#45;a5_m3 -->
<g id="edge43" class="edge">
<title>a4_m3&#45;&#45;a5_m3</title>
<path fill="none" stroke="green" d="M722.88,-506.15C738.83,-494.28 761.1,-477.7 777.04,-465.82"/>
</g>
<!-- a4_m10 -->
<g id="node26" class="node">
<title>a4_m10</title>
<ellipse fill="none" stroke="black" cx="651.95" cy="-450" rx="46.59" ry="18"/>
<text text-anchor="middle" x="651.95" y="-446.3" font-family="Times,serif" font-size="14.00">a4_m10</text>
</g>
<!-- a4_m3&#45;&#45;a4_m10 -->
<g id="edge41" class="edge">
<title>a4_m3&#45;&#45;a4_m10</title>
<path fill="none" stroke="red" d="M691.12,-504.76C683,-493.62 672.25,-478.87 664.06,-467.63"/>
</g>
<!-- a4_m12 -->
<g id="node27" class="node">
<title>a4_m12</title>
<ellipse fill="none" stroke="black" cx="751.95" cy="-306" rx="46.59" ry="18"/>
<text text-anchor="middle" x="751.95" y="-302.3" font-family="Times,serif" font-size="14.00">a4_m12</text>
</g>
<!-- a4_m3&#45;&#45;a4_m12 -->
<g id="edge42" class="edge">
<title>a4_m3&#45;&#45;a4_m12</title>
<path fill="none" stroke="red" d="M706.87,-503.85C716.05,-463.78 738.81,-364.38 748,-324.23"/>
</g>
<!-- a5_m13 -->
<g id="node33" class="node">
<title>a5_m13</title>
<ellipse fill="none" stroke="black" cx="865.95" cy="-378" rx="46.59" ry="18"/>
<text text-anchor="middle" x="865.95" y="-374.3" font-family="Times,serif" font-size="14.00">a5_m13</text>
</g>
<!-- a5_m3&#45;&#45;a5_m13 -->
<g id="edge52" class="edge">
<title>a5_m3&#45;&#45;a5_m13</title>
<path fill="none" stroke="red" d="M812.6,-433.12C823.74,-421.82 838.65,-406.7 849.87,-395.31"/>
</g>
<!-- a2_m4&#45;&#45;a2_m6 -->
<g id="edge13" class="edge">
<title>a2_m4&#45;&#45;a2_m6</title>
<path fill="none" stroke="red" d="M159.84,-720.99C134.1,-693.71 82.05,-638.55 56.21,-611.17"/>
</g>
<!-- a6_m4 -->
<g id="node12" class="node">
<title>a6_m4</title>
<ellipse fill="none" stroke="black" cx="174.95" cy="-666" rx="40.89" ry="18"/>
<text text-anchor="middle" x="174.95" y="-662.3" font-family="Times,serif" font-size="14.00">a6_m4</text>
</g>
<!-- a2_m4&#45;&#45;a6_m4 -->
<g id="edge14" class="edge">
<title>a2_m4&#45;&#45;a6_m4</title>
<path fill="none" stroke="green" d="M174.95,-719.7C174.95,-708.85 174.95,-694.92 174.95,-684.1"/>
</g>
<!-- a6_m6 -->
<g id="node13" class="node">
<title>a6_m6</title>
<ellipse fill="none" stroke="black" cx="78.95" cy="-522" rx="40.89" ry="18"/>
<text text-anchor="middle" x="78.95" y="-518.3" font-family="Times,serif" font-size="14.00">a6_m6</text>
</g>
<!-- a2_m6&#45;&#45;a6_m6 -->
<g id="edge15" class="edge">
<title>a2_m6&#45;&#45;a6_m6</title>
<path fill="none" stroke="green" d="M49.95,-576.41C55.92,-565.41 63.73,-551.03 69.74,-539.96"/>
</g>
<!-- a7_m6 -->
<g id="node14" class="node">
<title>a7_m6</title>
<ellipse fill="none" stroke="black" cx="78.95" cy="-450" rx="40.89" ry="18"/>
<text text-anchor="middle" x="78.95" y="-446.3" font-family="Times,serif" font-size="14.00">a7_m6</text>
</g>
<!-- a2_m6&#45;&#45;a7_m6 -->
<g id="edge16" class="edge">
<title>a2_m6&#45;&#45;a7_m6</title>
<path fill="none" stroke="green" d="M33.75,-575.99C27.09,-557.61 19.51,-527.76 28.95,-504 35.02,-488.72 47.82,-475.29 58.94,-465.77"/>
</g>
<!-- a8_m6 -->
<g id="node15" class="node">
<title>a8_m6</title>
<ellipse fill="none" stroke="black" cx="44.95" cy="-378" rx="40.89" ry="18"/>
<text text-anchor="middle" x="44.95" y="-374.3" font-family="Times,serif" font-size="14.00">a8_m6</text>
</g>
<!-- a2_m6&#45;&#45;a8_m6 -->
<g id="edge17" class="edge">
<title>a2_m6&#45;&#45;a8_m6</title>
<path fill="none" stroke="green" d="M32.85,-576.26C28.36,-566.05 23.24,-552.58 20.95,-540 12.33,-492.78 10.82,-478.92 20.95,-432 23.72,-419.16 29.86,-405.7 35.24,-395.55"/>
</g>
<!-- a6_m4&#45;&#45;a6_m6 -->
<g id="edge55" class="edge">
<title>a6_m4&#45;&#45;a6_m6</title>
<path fill="none" stroke="red" d="M159.54,-649C150.14,-638.83 138.2,-625.15 128.95,-612 112.11,-588.09 96.21,-558.03 87.03,-539.68"/>
</g>
<!-- a6_m5 -->
<g id="node35" class="node">
<title>a6_m5</title>
<ellipse fill="none" stroke="black" cx="178.95" cy="-594" rx="40.89" ry="18"/>
<text text-anchor="middle" x="178.95" y="-590.3" font-family="Times,serif" font-size="14.00">a6_m5</text>
</g>
<!-- a6_m4&#45;&#45;a6_m5 -->
<g id="edge54" class="edge">
<title>a6_m4&#45;&#45;a6_m5</title>
<path fill="none" stroke="red" d="M175.94,-647.7C176.56,-636.85 177.35,-622.92 177.97,-612.1"/>
</g>
<!-- a6_m6&#45;&#45;a7_m6 -->
<g id="edge59" class="edge">
<title>a6_m6&#45;&#45;a7_m6</title>
<path fill="none" stroke="green" d="M78.95,-503.7C78.95,-492.85 78.95,-478.92 78.95,-468.1"/>
</g>
<!-- a6_m6&#45;&#45;a8_m6 -->
<g id="edge60" class="edge">
<title>a6_m6&#45;&#45;a8_m6</title>
<path fill="none" stroke="green" d="M58.94,-506.23C47.82,-496.71 35.02,-483.28 28.95,-468 19.44,-444.07 28.68,-414.28 36.55,-395.95"/>
</g>
<!-- a7_m6&#45;&#45;a8_m6 -->
<g id="edge63" class="edge">
<title>a7_m6&#45;&#45;a8_m6</title>
<path fill="none" stroke="green" d="M70.72,-432.05C65.37,-421.05 58.43,-406.76 53.1,-395.79"/>
</g>
<!-- a3_m2&#45;&#45;a3_m3 -->
<g id="edge22" class="edge">
<title>a3_m2&#45;&#45;a3_m3</title>
<path fill="none" stroke="red" d="M443.47,-648.76C452.19,-637.46 463.78,-622.44 472.49,-611.15"/>
</g>
<!-- a3_m2&#45;&#45;a3_m7 -->
<g id="edge23" class="edge">
<title>a3_m2&#45;&#45;a3_m7</title>
<path fill="none" stroke="red" d="M429.14,-647.87C426.25,-620.58 420.65,-567.52 417.76,-540.19"/>
</g>
<!-- a3_m2&#45;&#45;a3_m9 -->
<g id="edge24" class="edge">
<title>a3_m2&#45;&#45;a3_m9</title>
<path fill="none" stroke="red" d="M422.54,-648.12C402.85,-609.05 351.48,-509.75 299.95,-432 291.46,-419.2 280.83,-405.51 272.51,-395.25"/>
</g>
<!-- a4_m2 -->
<g id="node19" class="node">
<title>a4_m2</title>
<ellipse fill="none" stroke="black" cx="595.95" cy="-594" rx="40.89" ry="18"/>
<text text-anchor="middle" x="595.95" y="-590.3" font-family="Times,serif" font-size="14.00">a4_m2</text>
</g>
<!-- a3_m2&#45;&#45;a4_m2 -->
<g id="edge25" class="edge">
<title>a3_m2&#45;&#45;a4_m2</title>
<path fill="none" stroke="green" d="M459.31,-652.97C489.53,-640.15 537.11,-619.96 567.4,-607.11"/>
</g>
<!-- a5_m2 -->
<g id="node20" class="node">
<title>a5_m2</title>
<ellipse fill="none" stroke="black" cx="802.95" cy="-522" rx="40.89" ry="18"/>
<text text-anchor="middle" x="802.95" y="-518.3" font-family="Times,serif" font-size="14.00">a5_m2</text>
</g>
<!-- a3_m2&#45;&#45;a5_m2 -->
<g id="edge26" class="edge">
<title>a3_m2&#45;&#45;a5_m2</title>
<path fill="none" stroke="green" d="M461.72,-653.93C468.04,-651.83 474.67,-649.74 480.95,-648 553.26,-627.89 575.84,-638.81 645.95,-612 697.75,-592.19 752.97,-557.23 782.12,-537.54"/>
</g>
<!-- a3_m7&#45;&#45;a3_m9 -->
<g id="edge31" class="edge">
<title>a3_m7&#45;&#45;a3_m9</title>
<path fill="none" stroke="red" d="M408.85,-504.04C400.01,-484.6 383.31,-452.76 360.95,-432 340.32,-412.86 311.48,-398.72 289.72,-389.89"/>
</g>
<!-- a9_m7 -->
<g id="node21" class="node">
<title>a9_m7</title>
<ellipse fill="none" stroke="black" cx="503.95" cy="-450" rx="40.89" ry="18"/>
<text text-anchor="middle" x="503.95" y="-446.3" font-family="Times,serif" font-size="14.00">a9_m7</text>
</g>
<!-- a3_m7&#45;&#45;a9_m7 -->
<g id="edge32" class="edge">
<title>a3_m7&#45;&#45;a9_m7</title>
<path fill="none" stroke="green" d="M435.04,-505.81C449.8,-494.07 470.14,-477.89 484.89,-466.16"/>
</g>
<!-- a9_m9 -->
<g id="node22" class="node">
<title>a9_m9</title>
<ellipse fill="none" stroke="black" cx="252.95" cy="-306" rx="40.89" ry="18"/>
<text text-anchor="middle" x="252.95" y="-302.3" font-family="Times,serif" font-size="14.00">a9_m9</text>
</g>
<!-- a3_m9&#45;&#45;a9_m9 -->
<g id="edge33" class="edge">
<title>a3_m9&#45;&#45;a9_m9</title>
<path fill="none" stroke="green" d="M257.46,-359.7C256.53,-348.85 255.34,-334.92 254.41,-324.1"/>
</g>
<!-- a10_m9 -->
<g id="node23" class="node">
<title>a10_m9</title>
<ellipse fill="none" stroke="black" cx="208.95" cy="-234" rx="46.59" ry="18"/>
<text text-anchor="middle" x="208.95" y="-230.3" font-family="Times,serif" font-size="14.00">a10_m9</text>
</g>
<!-- a3_m9&#45;&#45;a10_m9 -->
<g id="edge34" class="edge">
<title>a3_m9&#45;&#45;a10_m9</title>
<path fill="none" stroke="green" d="M236.6,-362.74C224.16,-353.4 209.83,-339.98 202.95,-324 192.91,-300.67 198.19,-270.71 203.29,-252.18"/>
</g>
<!-- a11_m9 -->
<g id="node24" class="node">
<title>a11_m9</title>
<ellipse fill="none" stroke="black" cx="255.95" cy="-162" rx="46.59" ry="18"/>
<text text-anchor="middle" x="255.95" y="-158.3" font-family="Times,serif" font-size="14.00">a11_m9</text>
</g>
<!-- a3_m9&#45;&#45;a11_m9 -->
<g id="edge35" class="edge">
<title>a3_m9&#45;&#45;a11_m9</title>
<path fill="none" stroke="green" d="M237.32,-362.51C223.77,-352.72 206.55,-338.9 193.95,-324 170.16,-295.89 162.37,-287.6 152.95,-252 148.85,-236.53 144.61,-229.66 152.95,-216 166.88,-193.17 194.13,-179.75 217.11,-172.13"/>
</g>
<!-- a12_m9 -->
<g id="node25" class="node">
<title>a12_m9</title>
<ellipse fill="none" stroke="black" cx="180.95" cy="-90" rx="46.59" ry="18"/>
<text text-anchor="middle" x="180.95" y="-86.3" font-family="Times,serif" font-size="14.00">a12_m9</text>
</g>
<!-- a3_m9&#45;&#45;a12_m9 -->
<g id="edge36" class="edge">
<title>a3_m9&#45;&#45;a12_m9</title>
<path fill="none" stroke="green" d="M227.35,-366.4C206.45,-357.92 179.88,-344.09 162.95,-324 141.12,-298.1 143.58,-285.4 137.95,-252 134.44,-231.2 138.59,-150.58 140.95,-144 145.92,-130.11 155.92,-116.86 164.68,-107.08"/>
</g>
<!-- a4_m2&#45;&#45;a4_m3 -->
<g id="edge37" class="edge">
<title>a4_m2&#45;&#45;a4_m3</title>
<path fill="none" stroke="red" d="M617.86,-578.67C636.32,-566.59 662.61,-549.39 681.06,-537.32"/>
</g>
<!-- a4_m2&#45;&#45;a5_m2 -->
<g id="edge40" class="edge">
<title>a4_m2&#45;&#45;a5_m2</title>
<path fill="none" stroke="green" d="M627.53,-582.36C659.24,-571.67 709.49,-554.72 752.95,-540 758.94,-537.97 765.33,-535.8 771.48,-533.71"/>
</g>
<!-- a4_m2&#45;&#45;a4_m10 -->
<g id="edge38" class="edge">
<title>a4_m2&#45;&#45;a4_m10</title>
<path fill="none" stroke="red" d="M602.59,-576.15C613.37,-548.82 634.54,-495.14 645.31,-467.82"/>
</g>
<!-- a4_m2&#45;&#45;a4_m12 -->
<g id="edge39" class="edge">
<title>a4_m2&#45;&#45;a4_m12</title>
<path fill="none" stroke="red" d="M591.36,-575.96C584.09,-545.37 572.96,-479.88 595.95,-432 622.23,-377.25 685.48,-338.94 722.87,-320.18"/>
</g>
<!-- a5_m2&#45;&#45;a5_m3 -->
<g id="edge50" class="edge">
<title>a5_m2&#45;&#45;a5_m3</title>
<path fill="none" stroke="red" d="M801.46,-503.7C800.53,-492.85 799.34,-478.92 798.41,-468.1"/>
</g>
<!-- a5_m2&#45;&#45;a5_m13 -->
<g id="edge51" class="edge">
<title>a5_m2&#45;&#45;a5_m13</title>
<path fill="none" stroke="red" d="M819.5,-505.29C828.92,-495.44 840.16,-481.99 846.95,-468 858.25,-444.69 862.87,-414.72 864.73,-396.19"/>
</g>
<!-- a9_m7&#45;&#45;a9_m9 -->
<g id="edge66" class="edge">
<title>a9_m7&#45;&#45;a9_m9</title>
<path fill="none" stroke="red" d="M474.13,-437.59C449.41,-427.71 413.62,-412.46 383.95,-396 342.59,-373.06 297.67,-340.77 272.64,-322.05"/>
</g>
<!-- a9_m8 -->
<g id="node38" class="node">
<title>a9_m8</title>
<ellipse fill="none" stroke="black" cx="433.95" cy="-378" rx="40.89" ry="18"/>
<text text-anchor="middle" x="433.95" y="-374.3" font-family="Times,serif" font-size="14.00">a9_m8</text>
</g>
<!-- a9_m7&#45;&#45;a9_m8 -->
<g id="edge65" class="edge">
<title>a9_m7&#45;&#45;a9_m8</title>
<path fill="none" stroke="red" d="M488.06,-433.12C476.61,-421.66 461.21,-406.26 449.77,-394.82"/>
</g>
<!-- a9_m9&#45;&#45;a10_m9 -->
<g id="edge71" class="edge">
<title>a9_m9&#45;&#45;a10_m9</title>
<path fill="none" stroke="green" d="M242.52,-288.41C235.61,-277.41 226.56,-263.03 219.6,-251.96"/>
</g>
<!-- a9_m9&#45;&#45;a11_m9 -->
<g id="edge72" class="edge">
<title>a9_m9&#45;&#45;a11_m9</title>
<path fill="none" stroke="green" d="M257.82,-287.98C260.51,-277.67 263.58,-264.19 264.95,-252 267.74,-227 263.4,-198 259.83,-180.07"/>
</g>
<!-- a9_m9&#45;&#45;a12_m9 -->
<g id="edge73" class="edge">
<title>a9_m9&#45;&#45;a12_m9</title>
<path fill="none" stroke="green" d="M217.71,-296.41C194.89,-288.82 166.93,-275.23 152.95,-252 125.01,-205.57 154.34,-138.8 171.04,-107.89"/>
</g>
<!-- a10_m9&#45;&#45;a11_m9 -->
<g id="edge77" class="edge">
<title>a10_m9&#45;&#45;a11_m9</title>
<path fill="none" stroke="green" d="M220.08,-216.41C227.47,-205.41 237.13,-191.03 244.56,-179.96"/>
</g>
<!-- a10_m9&#45;&#45;a12_m9 -->
<g id="edge78" class="edge">
<title>a10_m9&#45;&#45;a12_m9</title>
<path fill="none" stroke="green" d="M205.57,-215.87C200.19,-188.58 189.73,-135.52 184.34,-108.19"/>
</g>
<!-- a11_m9&#45;&#45;a12_m9 -->
<g id="edge81" class="edge">
<title>a11_m9&#45;&#45;a12_m9</title>
<path fill="none" stroke="green" d="M238.93,-145.12C226.65,-133.66 210.16,-118.26 197.9,-106.82"/>
</g>
<!-- a4_m10&#45;&#45;a4_m12 -->
<g id="edge44" class="edge">
<title>a4_m10&#45;&#45;a4_m12</title>
<path fill="none" stroke="red" d="M663.53,-432.22C675.94,-414.29 696.23,-385.07 713.95,-360 722.57,-347.8 732.41,-334.09 739.91,-323.67"/>
</g>
<!-- a13_m10 -->
<g id="node28" class="node">
<title>a13_m10</title>
<ellipse fill="none" stroke="black" cx="548.95" cy="-378" rx="52.79" ry="18"/>
<text text-anchor="middle" x="548.95" y="-374.3" font-family="Times,serif" font-size="14.00">a13_m10</text>
</g>
<!-- a4_m10&#45;&#45;a13_m10 -->
<g id="edge45" class="edge">
<title>a4_m10&#45;&#45;a13_m10</title>
<path fill="none" stroke="green" d="M629.85,-433.98C612.71,-422.33 589.03,-406.24 571.72,-394.48"/>
</g>
<!-- a13_m12 -->
<g id="node29" class="node">
<title>a13_m12</title>
<ellipse fill="none" stroke="black" cx="751.95" cy="-234" rx="52.79" ry="18"/>
<text text-anchor="middle" x="751.95" y="-230.3" font-family="Times,serif" font-size="14.00">a13_m12</text>
</g>
<!-- a4_m12&#45;&#45;a13_m12 -->
<g id="edge46" class="edge">
<title>a4_m12&#45;&#45;a13_m12</title>
<path fill="none" stroke="green" d="M751.95,-287.7C751.95,-276.85 751.95,-262.92 751.95,-252.1"/>
</g>
<!-- a14_m12 -->
<g id="node30" class="node">
<title>a14_m12</title>
<ellipse fill="none" stroke="black" cx="790.95" cy="-162" rx="52.79" ry="18"/>
<text text-anchor="middle" x="790.95" y="-158.3" font-family="Times,serif" font-size="14.00">a14_m12</text>
</g>
<!-- a4_m12&#45;&#45;a14_m12 -->
<g id="edge47" class="edge">
<title>a4_m12&#45;&#45;a14_m12</title>
<path fill="none" stroke="green" d="M777.26,-290.85C790.86,-281.71 806.36,-268.46 813.95,-252 824.97,-228.08 812.23,-198.02 801.78,-179.68"/>
</g>
<!-- a15_m12 -->
<g id="node31" class="node">
<title>a15_m12</title>
<ellipse fill="none" stroke="black" cx="847.95" cy="-90" rx="52.79" ry="18"/>
<text text-anchor="middle" x="847.95" y="-86.3" font-family="Times,serif" font-size="14.00">a15_m12</text>
</g>
<!-- a4_m12&#45;&#45;a15_m12 -->
<g id="edge48" class="edge">
<title>a4_m12&#45;&#45;a15_m12</title>
<path fill="none" stroke="green" d="M778.86,-290.97C795.08,-281.54 815.37,-267.95 829.95,-252 854.64,-224.98 860.76,-215.44 869.95,-180 873.96,-164.51 873.07,-159.69 869.95,-144 867.45,-131.49 861.95,-118.24 857.08,-108.12"/>
</g>
<!-- a16_m12 -->
<g id="node32" class="node">
<title>a16_m12</title>
<ellipse fill="none" stroke="black" cx="766.95" cy="-18" rx="52.79" ry="18"/>
<text text-anchor="middle" x="766.95" y="-14.3" font-family="Times,serif" font-size="14.00">a16_m12</text>
</g>
<!-- a4_m12&#45;&#45;a16_m12 -->
<g id="edge49" class="edge">
<title>a4_m12&#45;&#45;a16_m12</title>
<path fill="none" stroke="green" d="M787.73,-294.35C810.23,-286.03 838.42,-272.41 856.95,-252 902.79,-201.51 898.6,-175.25 909.95,-108 912.61,-92.22 919.09,-85.13 909.95,-72 889.23,-42.23 849.73,-29.14 817.49,-23.41"/>
</g>
<!-- a13_m10&#45;&#45;a13_m12 -->
<g id="edge84" class="edge">
<title>a13_m10&#45;&#45;a13_m12</title>
<path fill="none" stroke="red" d="M571.06,-361.53C610.11,-334.22 690.83,-277.75 729.86,-250.45"/>
</g>
<!-- a13_m11 -->
<g id="node42" class="node">
<title>a13_m11</title>
<ellipse fill="none" stroke="black" cx="552.95" cy="-306" rx="52.79" ry="18"/>
<text text-anchor="middle" x="552.95" y="-302.3" font-family="Times,serif" font-size="14.00">a13_m11</text>
</g>
<!-- a13_m10&#45;&#45;a13_m11 -->
<g id="edge83" class="edge">
<title>a13_m10&#45;&#45;a13_m11</title>
<path fill="none" stroke="red" d="M549.94,-359.7C550.56,-348.85 551.35,-334.92 551.97,-324.1"/>
</g>
<!-- a13_m12&#45;&#45;a14_m12 -->
<g id="edge89" class="edge">
<title>a13_m12&#45;&#45;a14_m12</title>
<path fill="none" stroke="green" d="M761.39,-216.05C767.52,-205.05 775.48,-190.76 781.59,-179.79"/>
</g>
<!-- a13_m12&#45;&#45;a15_m12 -->
<g id="edge90" class="edge">
<title>a13_m12&#45;&#45;a15_m12</title>
<path fill="none" stroke="green" d="M793.13,-222.58C814.98,-214.73 839.94,-201.52 852.95,-180 866.24,-158.02 860.19,-127.12 854.29,-108.11"/>
</g>
<!-- a13_m12&#45;&#45;a16_m12 -->
<g id="edge91" class="edge">
<title>a13_m12&#45;&#45;a16_m12</title>
<path fill="none" stroke="green" d="M742.4,-215.93C737.31,-205.82 731.56,-192.57 728.95,-180 717.97,-127.14 743.61,-65.09 758,-35.85"/>
</g>
<!-- a14_m12&#45;&#45;a15_m12 -->
<g id="edge95" class="edge">
<title>a14_m12&#45;&#45;a15_m12</title>
<path fill="none" stroke="green" d="M804.45,-144.41C813.54,-133.25 825.47,-118.6 834.54,-107.47"/>
</g>
<!-- a14_m12&#45;&#45;a16_m12 -->
<g id="edge96" class="edge">
<title>a14_m12&#45;&#45;a16_m12</title>
<path fill="none" stroke="green" d="M788.05,-143.87C783.44,-116.58 774.47,-63.52 769.85,-36.19"/>
</g>
<!-- a15_m12&#45;&#45;a16_m12 -->
<g id="edge99" class="edge">
<title>a15_m12&#45;&#45;a16_m12</title>
<path fill="none" stroke="green" d="M829.57,-73.12C816.4,-61.74 798.74,-46.48 785.53,-35.06"/>
</g>
<!-- a17_m13 -->
<g id="node34" class="node">
<title>a17_m13</title>
<ellipse fill="none" stroke="black" cx="872.95" cy="-306" rx="52.79" ry="18"/>
<text text-anchor="middle" x="872.95" y="-302.3" font-family="Times,serif" font-size="14.00">a17_m13</text>
</g>
<!-- a5_m13&#45;&#45;a17_m13 -->
<g id="edge53" class="edge">
<title>a5_m13&#45;&#45;a17_m13</title>
<path fill="none" stroke="green" d="M867.68,-359.7C868.76,-348.85 870.15,-334.92 871.24,-324.1"/>
</g>
<!-- a17_m14 -->
<g id="node46" class="node">
<title>a17_m14</title>
<ellipse fill="none" stroke="black" cx="1068.95" cy="-234" rx="52.79" ry="18"/>
<text text-anchor="middle" x="1068.95" y="-230.3" font-family="Times,serif" font-size="14.00">a17_m14</text>
</g>
<!-- a17_m13&#45;&#45;a17_m14 -->
<g id="edge101" class="edge">
<title>a17_m13&#45;&#45;a17_m14</title>
<path fill="none" stroke="red" d="M907.99,-292.49C943.55,-279.78 998.3,-260.23 1033.88,-247.52"/>
</g>
<!-- a6_m5&#45;&#45;a6_m6 -->
<g id="edge56" class="edge">
<title>a6_m5&#45;&#45;a6_m6</title>
<path fill="none" stroke="red" d="M157.74,-578.15C140.65,-566.2 116.77,-549.47 99.78,-537.58"/>
</g>
<!-- a7_m5 -->
<g id="node36" class="node">
<title>a7_m5</title>
<ellipse fill="none" stroke="black" cx="178.95" cy="-522" rx="40.89" ry="18"/>
<text text-anchor="middle" x="178.95" y="-518.3" font-family="Times,serif" font-size="14.00">a7_m5</text>
</g>
<!-- a6_m5&#45;&#45;a7_m5 -->
<g id="edge57" class="edge">
<title>a6_m5&#45;&#45;a7_m5</title>
<path fill="none" stroke="green" d="M178.95,-575.7C178.95,-564.85 178.95,-550.92 178.95,-540.1"/>
</g>
<!-- a8_m5 -->
<g id="node37" class="node">
<title>a8_m5</title>
<ellipse fill="none" stroke="black" cx="178.95" cy="-450" rx="40.89" ry="18"/>
<text text-anchor="middle" x="178.95" y="-446.3" font-family="Times,serif" font-size="14.00">a8_m5</text>
</g>
<!-- a6_m5&#45;&#45;a8_m5 -->
<g id="edge58" class="edge">
<title>a6_m5&#45;&#45;a8_m5</title>
<path fill="none" stroke="green" d="M198.95,-578.23C210.08,-568.71 222.88,-555.28 228.95,-540 234.85,-525.13 234.85,-518.87 228.95,-504 222.88,-488.72 210.08,-475.29 198.95,-465.77"/>
</g>
<!-- a7_m5&#45;&#45;a7_m6 -->
<g id="edge61" class="edge">
<title>a7_m5&#45;&#45;a7_m6</title>
<path fill="none" stroke="red" d="M157.74,-506.15C140.65,-494.2 116.77,-477.47 99.78,-465.58"/>
</g>
<!-- a7_m5&#45;&#45;a8_m5 -->
<g id="edge62" class="edge">
<title>a7_m5&#45;&#45;a8_m5</title>
<path fill="none" stroke="green" d="M178.95,-503.7C178.95,-492.85 178.95,-478.92 178.95,-468.1"/>
</g>
<!-- a8_m5&#45;&#45;a8_m6 -->
<g id="edge64" class="edge">
<title>a8_m5&#45;&#45;a8_m6</title>
<path fill="none" stroke="red" d="M153.43,-435.67C129.58,-423.21 94.18,-404.72 70.37,-392.28"/>
</g>
<!-- a9_m8&#45;&#45;a9_m9 -->
<g id="edge67" class="edge">
<title>a9_m8&#45;&#45;a9_m9</title>
<path fill="none" stroke="red" d="M404.06,-365.44C370.42,-352.43 316.11,-331.43 282.58,-318.46"/>
</g>
<!-- a10_m8 -->
<g id="node39" class="node">
<title>a10_m8</title>
<ellipse fill="none" stroke="black" cx="358.95" cy="-306" rx="46.59" ry="18"/>
<text text-anchor="middle" x="358.95" y="-302.3" font-family="Times,serif" font-size="14.00">a10_m8</text>
</g>
<!-- a9_m8&#45;&#45;a10_m8 -->
<g id="edge68" class="edge">
<title>a9_m8&#45;&#45;a10_m8</title>
<path fill="none" stroke="green" d="M417.3,-361.46C405.05,-350.03 388.43,-334.52 376.06,-322.98"/>
</g>
<!-- a11_m8 -->
<g id="node40" class="node">
<title>a11_m8</title>
<ellipse fill="none" stroke="black" cx="358.95" cy="-234" rx="46.59" ry="18"/>
<text text-anchor="middle" x="358.95" y="-230.3" font-family="Times,serif" font-size="14.00">a11_m8</text>
</g>
<!-- a9_m8&#45;&#45;a11_m8 -->
<g id="edge69" class="edge">
<title>a9_m8&#45;&#45;a11_m8</title>
<path fill="none" stroke="green" d="M433.29,-359.87C431.91,-341.13 427.71,-310.73 414.95,-288 406.49,-272.94 392.34,-259.6 380.38,-250.07"/>
</g>
<!-- a12_m8 -->
<g id="node41" class="node">
<title>a12_m8</title>
<ellipse fill="none" stroke="black" cx="386.95" cy="-162" rx="46.59" ry="18"/>
<text text-anchor="middle" x="386.95" y="-158.3" font-family="Times,serif" font-size="14.00">a12_m8</text>
</g>
<!-- a9_m8&#45;&#45;a12_m8 -->
<g id="edge70" class="edge">
<title>a9_m8&#45;&#45;a12_m8</title>
<path fill="none" stroke="green" d="M437.48,-359.77C442.87,-329.43 450.6,-265.05 430.95,-216 425.25,-201.79 414.25,-188.54 404.68,-178.84"/>
</g>
<!-- a10_m8&#45;&#45;a10_m9 -->
<g id="edge74" class="edge">
<title>a10_m8&#45;&#45;a10_m9</title>
<path fill="none" stroke="red" d="M330.38,-291.67C303.77,-279.25 264.32,-260.84 237.66,-248.4"/>
</g>
<!-- a10_m8&#45;&#45;a11_m8 -->
<g id="edge75" class="edge">
<title>a10_m8&#45;&#45;a11_m8</title>
<path fill="none" stroke="green" d="M358.95,-287.7C358.95,-276.85 358.95,-262.92 358.95,-252.1"/>
</g>
<!-- a10_m8&#45;&#45;a12_m8 -->
<g id="edge76" class="edge">
<title>a10_m8&#45;&#45;a12_m8</title>
<path fill="none" stroke="green" d="M381.87,-290.3C394.17,-280.99 408.17,-267.74 414.95,-252 425.51,-227.45 410.83,-197.57 399.05,-179.44"/>
</g>
<!-- a11_m8&#45;&#45;a11_m9 -->
<g id="edge79" class="edge">
<title>a11_m8&#45;&#45;a11_m9</title>
<path fill="none" stroke="red" d="M336.85,-217.98C319.47,-206.17 295.38,-189.8 278.01,-177.99"/>
</g>
<!-- a11_m8&#45;&#45;a12_m8 -->
<g id="edge80" class="edge">
<title>a11_m8&#45;&#45;a12_m8</title>
<path fill="none" stroke="green" d="M365.72,-216.05C370.06,-205.21 375.67,-191.18 380.04,-180.28"/>
</g>
<!-- a12_m8&#45;&#45;a12_m9 -->
<g id="edge82" class="edge">
<title>a12_m8&#45;&#45;a12_m9</title>
<path fill="none" stroke="red" d="M352.93,-149.44C314.76,-136.47 253.2,-115.55 215.01,-102.58"/>
</g>
<!-- a13_m11&#45;&#45;a13_m12 -->
<g id="edge85" class="edge">
<title>a13_m11&#45;&#45;a13_m12</title>
<path fill="none" stroke="red" d="M588.52,-292.49C624.75,-279.74 680.57,-260.11 716.68,-247.41"/>
</g>
<!-- a14_m11 -->
<g id="node43" class="node">
<title>a14_m11</title>
<ellipse fill="none" stroke="black" cx="628.95" cy="-234" rx="52.79" ry="18"/>
<text text-anchor="middle" x="628.95" y="-230.3" font-family="Times,serif" font-size="14.00">a14_m11</text>
</g>
<!-- a13_m11&#45;&#45;a14_m11 -->
<g id="edge86" class="edge">
<title>a13_m11&#45;&#45;a14_m11</title>
<path fill="none" stroke="green" d="M570.57,-288.76C582.85,-277.46 599.16,-262.44 611.42,-251.15"/>
</g>
<!-- a15_m11 -->
<g id="node44" class="node">
<title>a15_m11</title>
<ellipse fill="none" stroke="black" cx="628.95" cy="-162" rx="52.79" ry="18"/>
<text text-anchor="middle" x="628.95" y="-158.3" font-family="Times,serif" font-size="14.00">a15_m11</text>
</g>
<!-- a13_m11&#45;&#45;a15_m11 -->
<g id="edge87" class="edge">
<title>a13_m11&#45;&#45;a15_m11</title>
<path fill="none" stroke="green" d="M552.22,-287.8C552.18,-268.99 554.35,-238.53 566.95,-216 575.65,-200.43 590.81,-187.34 603.96,-178.07"/>
</g>
<!-- a16_m11 -->
<g id="node45" class="node">
<title>a16_m11</title>
<ellipse fill="none" stroke="black" cx="588.95" cy="-90" rx="52.79" ry="18"/>
<text text-anchor="middle" x="588.95" y="-86.3" font-family="Times,serif" font-size="14.00">a16_m11</text>
</g>
<!-- a13_m11&#45;&#45;a16_m11 -->
<g id="edge88" class="edge">
<title>a13_m11&#45;&#45;a16_m11</title>
<path fill="none" stroke="green" d="M550.64,-287.57C547.3,-257.47 543.11,-194.14 558.95,-144 563.02,-131.09 570.52,-117.84 577,-107.82"/>
</g>
<!-- a14_m11&#45;&#45;a14_m12 -->
<g id="edge92" class="edge">
<title>a14_m11&#45;&#45;a14_m12</title>
<path fill="none" stroke="red" d="M660.18,-219.5C688.78,-207.15 730.88,-188.95 759.53,-176.57"/>
</g>
<!-- a14_m11&#45;&#45;a15_m11 -->
<g id="edge93" class="edge">
<title>a14_m11&#45;&#45;a15_m11</title>
<path fill="none" stroke="green" d="M628.95,-215.7C628.95,-204.85 628.95,-190.92 628.95,-180.1"/>
</g>
<!-- a14_m11&#45;&#45;a16_m11 -->
<g id="edge94" class="edge">
<title>a14_m11&#45;&#45;a16_m11</title>
<path fill="none" stroke="green" d="M602.68,-218.2C589.31,-209.09 574.35,-196.08 566.95,-180 555.96,-156.15 568.27,-126.07 578.42,-107.7"/>
</g>
<!-- a15_m11&#45;&#45;a15_m12 -->
<g id="edge97" class="edge">
<title>a15_m11&#45;&#45;a15_m12</title>
<path fill="none" stroke="red" d="M666.1,-149.13C706.37,-136.25 770.27,-115.83 810.61,-102.93"/>
</g>
<!-- a15_m11&#45;&#45;a16_m11 -->
<g id="edge98" class="edge">
<title>a15_m11&#45;&#45;a16_m11</title>
<path fill="none" stroke="green" d="M619.26,-144.05C612.97,-133.05 604.81,-118.76 598.54,-107.79"/>
</g>
<!-- a16_m11&#45;&#45;a16_m12 -->
<g id="edge100" class="edge">
<title>a16_m11&#45;&#45;a16_m12</title>
<path fill="none" stroke="red" d="M622.43,-75.83C654.25,-63.32 701.84,-44.6 733.62,-32.11"/>
</g>
<!-- a18_m14 -->
<g id="node47" class="node">
<title>a18_m14</title>
<ellipse fill="none" stroke="black" cx="1028.95" cy="-162" rx="52.79" ry="18"/>
<text text-anchor="middle" x="1028.95" y="-158.3" font-family="Times,serif" font-size="14.00">a18_m14</text>
</g>
<!-- a17_m14&#45;&#45;a18_m14 -->
<g id="edge102" class="edge">
<title>a17_m14&#45;&#45;a18_m14</title>
<path fill="none" stroke="green" d="M1059.26,-216.05C1052.97,-205.05 1044.81,-190.76 1038.54,-179.79"/>
</g>
<!-- a19_m14 -->
<g id="node48" class="node">
<title>a19_m14</title>
<ellipse fill="none" stroke="black" cx="1087.95" cy="-90" rx="52.79" ry="18"/>
<text text-anchor="middle" x="1087.95" y="-86.3" font-family="Times,serif" font-size="14.00">a19_m14</text>
</g>
<!-- a17_m14&#45;&#45;a19_m14 -->
<g id="edge103" class="edge">
<title>a17_m14&#45;&#45;a19_m14</title>
<path fill="none" stroke="green" d="M1078.08,-215.88C1082.95,-205.76 1088.45,-192.51 1090.95,-180 1095.84,-155.44 1093.34,-126.32 1090.84,-108.25"/>
</g>
<!-- a20_m14 -->
<g id="node49" class="node">
<title>a20_m14</title>
<ellipse fill="none" stroke="black" cx="1087.95" cy="-18" rx="52.79" ry="18"/>
<text text-anchor="middle" x="1087.95" y="-14.3" font-family="Times,serif" font-size="14.00">a20_m14</text>
</g>
<!-- a17_m14&#45;&#45;a20_m14 -->
<g id="edge104" class="edge">
<title>a17_m14&#45;&#45;a20_m14</title>
<path fill="none" stroke="green" d="M1084.46,-216.46C1104.34,-193.98 1137.69,-151.56 1149.95,-108 1154.28,-92.6 1156.64,-86.53 1149.95,-72 1142.54,-55.92 1127.58,-42.91 1114.22,-33.8"/>
</g>
<!-- a18_m14&#45;&#45;a19_m14 -->
<g id="edge105" class="edge">
<title>a18_m14&#45;&#45;a19_m14</title>
<path fill="none" stroke="green" d="M1042.93,-144.41C1052.33,-133.25 1064.68,-118.6 1074.06,-107.47"/>
</g>
<!-- a18_m14&#45;&#45;a20_m14 -->
<g id="edge106" class="edge">
<title>a18_m14&#45;&#45;a20_m14</title>
<path fill="none" stroke="green" d="M1024.03,-144.04C1019.6,-125.44 1015.27,-95.17 1025.95,-72 1033.35,-55.92 1048.31,-42.91 1061.68,-33.8"/>
</g>
<!-- a19_m14&#45;&#45;a20_m14 -->
<g id="edge107" class="edge">
<title>a19_m14&#45;&#45;a20_m14</title>
<path fill="none" stroke="green" d="M1087.95,-71.7C1087.95,-60.85 1087.95,-46.92 1087.95,-36.1"/>
</g>
</g>
</svg>
