<?xml version="1.0" encoding="UTF-8" standalone="no"?>
<!DOCTYPE svg PUBLIC "-//W3C//DTD SVG 1.1//EN"
 "http://www.w3.org/Graphics/SVG/1.1/DTD/svg11.dtd">
<!-- Generated by graphviz version 2.43.0 (0)
 -->
<!-- Pages: 1 -->
<svg width="376pt" height="548pt"
 viewBox="0.00 0.00 375.86 548.00" xmlns="http://www.w3.org/2000/svg" xmlns:xlink="http://www.w3.org/1999/xlink">
<g id="graph0" class="graph" transform="scale(1 1) rotate(0) translate(4 544)">
<polygon fill="white" stroke="transparent" points="-4,4 -4,-544 371.86,-544 371.86,4 -4,4"/>
<!-- a0_m0 -->
<g id="node1" class="node">
<title>a0_m0</title>
<ellipse fill="none" stroke="black" cx="74.95" cy="-522" rx="40.89" ry="18"/>
<text text-anchor="middle" x="74.95" y="-518.3" font-family="Times,serif" font-size="14.00">a0_m0</text>
</g>
<!-- a1_m0 -->
<g id="node2" class="node">
<title>a1_m0</title>
<ellipse fill="none" stroke="black" cx="109.95" cy="-450" rx="40.89" ry="18"/>
<text text-anchor="middle" x="109.95" y="-446.3" font-family="Times,serif" font-size="14.00">a1_m0</text>
</g>
<!-- a0_m0&#45;&#45;a1_m0 -->
<g id="edge1" class="edge">
<title>a0_m0&#45;&#45;a1_m0</title>
<path fill="none" stroke="green" d="M83.42,-504.05C88.92,-493.05 96.06,-478.76 101.55,-467.79"/>
</g>
<!-- a2_m0 -->
<g id="node3" class="node">
<title>a2_m0</title>
<ellipse fill="none" stroke="black" cx="40.95" cy="-378" rx="40.89" ry="18"/>
<text text-anchor="middle" x="40.95" y="-374.3" font-family="Times,serif" font-size="14.00">a2_m0</text>
</g>
<!-- a0_m0&#45;&#45;a2_m0 -->
<g id="edge2" class="edge">
<title>a0_m0&#45;&#45;a2_m0</title>
<path fill="none" stroke="green" d="M69.8,-503.89C66.76,-493.54 62.94,-480.07 59.95,-468 53.79,-443.16 47.81,-414.12 44.26,-396.14"/>
</g>
<!-- a1_m0&#45;&#45;a2_m0 -->
<g id="edge5" class="edge">
<title>a1_m0&#45;&#45;a2_m0</title>
<path fill="none" stroke="green" d="M94.29,-433.12C83,-421.66 67.82,-406.26 56.54,-394.82"/>
</g>
<!-- a1_m1 -->
<g id="node4" class="node">
<title>a1_m1</title>
<ellipse fill="none" stroke="black" cx="178.95" cy="-378" rx="40.89" ry="18"/>
<text text-anchor="middle" x="178.95" y="-374.3" font-family="Times,serif" font-size="14.00">a1_m1</text>
</g>
<!-- a1_m0&#45;&#45;a1_m1 -->
<g id="edge3" class="edge">
<title>a1_m0&#45;&#45;a1_m1</title>
<path fill="none" stroke="red" d="M125.6,-433.12C136.9,-421.66 152.07,-406.26 163.35,-394.82"/>
</g>
<!-- a1_m3 -->
<g id="node5" class="node">
<title>a1_m3</title>
<ellipse fill="none" stroke="black" cx="143.95" cy="-234" rx="40.89" ry="18"/>
<text text-anchor="middle" x="143.95" y="-230.3" font-family="Times,serif" font-size="14.00">a1_m3</text>
</g>
<!-- a1_m0&#45;&#45;a1_m3 -->
<g id="edge4" class="edge">
<title>a1_m0&#45;&#45;a1_m3</title>
<path fill="none" stroke="red" d="M112.67,-431.85C119.04,-391.78 134.83,-292.38 141.21,-252.23"/>
</g>
<!-- a2_m4 -->
<g id="node10" class="node">
<title>a2_m4</title>
<ellipse fill="none" stroke="black" cx="40.95" cy="-306" rx="40.89" ry="18"/>
<text text-anchor="middle" x="40.95" y="-302.3" font-family="Times,serif" font-size="14.00">a2_m4</text>
</g>
<!-- a2_m0&#45;&#45;a2_m4 -->
<g id="edge11" class="edge">
<title>a2_m0&#45;&#45;a2_m4</title>
<path fill="none" stroke="red" d="M40.95,-359.7C40.95,-348.85 40.95,-334.92 40.95,-324.1"/>
</g>
<!-- a1_m1&#45;&#45;a1_m3 -->
<g id="edge6" class="edge">
<title>a1_m1&#45;&#45;a1_m3</title>
<path fill="none" stroke="red" d="M174.72,-359.87C168,-332.58 154.92,-279.52 148.18,-252.19"/>
</g>
<!-- a3_m1 -->
<g id="node6" class="node">
<title>a3_m1</title>
<ellipse fill="none" stroke="black" cx="216.95" cy="-306" rx="40.89" ry="18"/>
<text text-anchor="middle" x="216.95" y="-302.3" font-family="Times,serif" font-size="14.00">a3_m1</text>
</g>
<!-- a1_m1&#45;&#45;a3_m1 -->
<g id="edge7" class="edge">
<title>a1_m1&#45;&#45;a3_m1</title>
<path fill="none" stroke="green" d="M187.95,-360.41C193.92,-349.41 201.73,-335.03 207.74,-323.96"/>
</g>
<!-- a3_m3 -->
<g id="node7" class="node">
<title>a3_m3</title>
<ellipse fill="none" stroke="black" cx="212.95" cy="-162" rx="40.89" ry="18"/>
<text text-anchor="middle" x="212.95" y="-158.3" font-family="Times,serif" font-size="14.00">a3_m3</text>
</g>
<!-- a1_m3&#45;&#45;a3_m3 -->
<g id="edge8" class="edge">
<title>a1_m3&#45;&#45;a3_m3</title>
<path fill="none" stroke="green" d="M159.6,-217.12C170.9,-205.66 186.07,-190.26 197.35,-178.82"/>
</g>
<!-- a4_m3 -->
<g id="node8" class="node">
<title>a4_m3</title>
<ellipse fill="none" stroke="black" cx="212.95" cy="-90" rx="40.89" ry="18"/>
<text text-anchor="middle" x="212.95" y="-86.3" font-family="Times,serif" font-size="14.00">a4_m3</text>
</g>
<!-- a1_m3&#45;&#45;a4_m3 -->
<g id="edge9" class="edge">
<title>a1_m3&#45;&#45;a4_m3</title>
<path fill="none" stroke="green" d="M144.88,-215.67C146.49,-197.02 150.91,-166.94 162.95,-144 170.59,-129.44 183.36,-116 194.09,-106.3"/>
</g>
<!-- a5_m3 -->
<g id="node9" class="node">
<title>a5_m3</title>
<ellipse fill="none" stroke="black" cx="177.95" cy="-18" rx="40.89" ry="18"/>
<text text-anchor="middle" x="177.95" y="-14.3" font-family="Times,serif" font-size="14.00">a5_m3</text>
</g>
<!-- a1_m3&#45;&#45;a5_m3 -->
<g id="edge10" class="edge">
<title>a1_m3&#45;&#45;a5_m3</title>
<path fill="none" stroke="green" d="M142.74,-215.7C141.15,-185.8 140.01,-122.77 153.95,-72 157.42,-59.34 163.56,-45.87 168.75,-35.68"/>
</g>
<!-- a3_m1&#45;&#45;a3_m3 -->
<g id="edge14" class="edge">
<title>a3_m1&#45;&#45;a3_m3</title>
<path fill="none" stroke="red" d="M216.46,-287.87C215.7,-260.58 214.2,-207.52 213.43,-180.19"/>
</g>
<!-- a3_m2 -->
<g id="node12" class="node">
<title>a3_m2</title>
<ellipse fill="none" stroke="black" cx="297.95" cy="-234" rx="40.89" ry="18"/>
<text text-anchor="middle" x="297.95" y="-230.3" font-family="Times,serif" font-size="14.00">a3_m2</text>
</g>
<!-- a3_m1&#45;&#45;a3_m2 -->
<g id="edge13" class="edge">
<title>a3_m1&#45;&#45;a3_m2</title>
<path fill="none" stroke="red" d="M234.92,-289.46C248.44,-277.78 266.86,-261.86 280.3,-250.25"/>
</g>
<!-- a3_m3&#45;&#45;a4_m3 -->
<g id="edge18" class="edge">
<title>a3_m3&#45;&#45;a4_m3</title>
<path fill="none" stroke="green" d="M212.95,-143.7C212.95,-132.85 212.95,-118.92 212.95,-108.1"/>
</g>
<!-- a3_m3&#45;&#45;a5_m3 -->
<g id="edge19" class="edge">
<title>a3_m3&#45;&#45;a5_m3</title>
<path fill="none" stroke="green" d="M192.94,-146.23C181.82,-136.71 169.02,-123.28 162.95,-108 153.46,-84.12 162.28,-54.31 169.85,-35.97"/>
</g>
<!-- a4_m3&#45;&#45;a5_m3 -->
<g id="edge22" class="edge">
<title>a4_m3&#45;&#45;a5_m3</title>
<path fill="none" stroke="green" d="M204.47,-72.05C198.97,-61.05 191.83,-46.76 186.34,-35.79"/>
</g>
<!-- a6_m4 -->
<g id="node11" class="node">
<title>a6_m4</title>
<ellipse fill="none" stroke="black" cx="40.95" cy="-234" rx="40.89" ry="18"/>
<text text-anchor="middle" x="40.95" y="-230.3" font-family="Times,serif" font-size="14.00">a6_m4</text>
</g>
<!-- a2_m4&#45;&#45;a6_m4 -->
<g id="edge12" class="edge">
<title>a2_m4&#45;&#45;a6_m4</title>
<path fill="none" stroke="green" d="M40.95,-287.7C40.95,-276.85 40.95,-262.92 40.95,-252.1"/>
</g>
<!-- a3_m2&#45;&#45;a3_m3 -->
<g id="edge15" class="edge">
<title>a3_m2&#45;&#45;a3_m3</title>
<path fill="none" stroke="red" d="M279.5,-217.81C265.25,-206.07 245.6,-189.89 231.35,-178.16"/>
</g>
<!-- a4_m2 -->
<g id="node13" class="node">
<title>a4_m2</title>
<ellipse fill="none" stroke="black" cx="312.95" cy="-162" rx="40.89" ry="18"/>
<text text-anchor="middle" x="312.95" y="-158.3" font-family="Times,serif" font-size="14.00">a4_m2</text>
</g>
<!-- a3_m2&#45;&#45;a4_m2 -->
<g id="edge16" class="edge">
<title>a3_m2&#45;&#45;a4_m2</title>
<path fill="none" stroke="green" d="M301.58,-216.05C303.9,-205.21 306.91,-191.18 309.24,-180.28"/>
</g>
<!-- a5_m2 -->
<g id="node14" class="node">
<title>a5_m2</title>
<ellipse fill="none" stroke="black" cx="312.95" cy="-90" rx="40.89" ry="18"/>
<text text-anchor="middle" x="312.95" y="-86.3" font-family="Times,serif" font-size="14.00">a5_m2</text>
</g>
<!-- a3_m2&#45;&#45;a5_m2 -->
<g id="edge17" class="edge">
<title>a3_m2&#45;&#45;a5_m2</title>
<path fill="none" stroke="green" d="M323.45,-219.76C337.93,-210.7 354.76,-197.23 362.95,-180 369.81,-165.55 368.85,-158.87 362.95,-144 356.88,-128.72 344.08,-115.29 332.95,-105.77"/>
</g>
<!-- a4_m2&#45;&#45;a4_m3 -->
<g id="edge20" class="edge">
<title>a4_m2&#45;&#45;a4_m3</title>
<path fill="none" stroke="red" d="M291.74,-146.15C274.65,-134.2 250.77,-117.47 233.78,-105.58"/>
</g>
<!-- a4_m2&#45;&#45;a5_m2 -->
<g id="edge21" class="edge">
<title>a4_m2&#45;&#45;a5_m2</title>
<path fill="none" stroke="green" d="M312.95,-143.7C312.95,-132.85 312.95,-118.92 312.95,-108.1"/>
</g>
<!-- a5_m2&#45;&#45;a5_m3 -->
<g id="edge23" class="edge">
<title>a5_m2&#45;&#45;a5_m3</title>
<path fill="none" stroke="red" d="M287.55,-75.83C263.57,-63.4 227.78,-44.84 203.68,-32.35"/>
</g>
</g>
</svg>
