<?xml version="1.0" encoding="UTF-8" standalone="no"?>
<!DOCTYPE svg PUBLIC "-//W3C//DTD SVG 1.1//EN"
 "http://www.w3.org/Graphics/SVG/1.1/DTD/svg11.dtd">
<!-- Generated by graphviz version 2.43.0 (0)
 -->
<!-- Pages: 1 -->
<svg width="190pt" height="476pt"
 viewBox="0.00 0.00 189.89 476.00" xmlns="http://www.w3.org/2000/svg" xmlns:xlink="http://www.w3.org/1999/xlink">
<g id="graph0" class="graph" transform="scale(1 1) rotate(0) translate(4 472)">
<polygon fill="white" stroke="transparent" points="-4,4 -4,-472 185.89,-472 185.89,4 -4,4"/>
<!-- a0_m0 -->
<g id="node1" class="node">
<title>a0_m0</title>
<ellipse fill="none" stroke="black" cx="74.95" cy="-450" rx="40.89" ry="18"/>
<text text-anchor="middle" x="74.95" y="-446.3" font-family="Times,serif" font-size="14.00">a0_m0</text>
</g>
<!-- a1_m0 -->
<g id="node2" class="node">
<title>a1_m0</title>
<ellipse fill="none" stroke="black" cx="109.95" cy="-378" rx="40.89" ry="18"/>
<text text-anchor="middle" x="109.95" y="-374.3" font-family="Times,serif" font-size="14.00">a1_m0</text>
</g>
<!-- a0_m0&#45;&#45;a1_m0 -->
<g id="edge1" class="edge">
<title>a0_m0&#45;&#45;a1_m0</title>
<path fill="none" stroke="green" d="M83.42,-432.05C88.92,-421.05 96.06,-406.76 101.55,-395.79"/>
</g>
<!-- a2_m0 -->
<g id="node3" class="node">
<title>a2_m0</title>
<ellipse fill="none" stroke="black" cx="40.95" cy="-306" rx="40.89" ry="18"/>
<text text-anchor="middle" x="40.95" y="-302.3" font-family="Times,serif" font-size="14.00">a2_m0</text>
</g>
<!-- a0_m0&#45;&#45;a2_m0 -->
<g id="edge2" class="edge">
<title>a0_m0&#45;&#45;a2_m0</title>
<path fill="none" stroke="green" d="M69.8,-431.89C66.76,-421.54 62.94,-408.07 59.95,-396 53.79,-371.16 47.81,-342.12 44.26,-324.14"/>
</g>
<!-- a1_m0&#45;&#45;a2_m0 -->
<g id="edge4" class="edge">
<title>a1_m0&#45;&#45;a2_m0</title>
<path fill="none" stroke="green" d="M94.29,-361.12C83,-349.66 67.82,-334.26 56.54,-322.82"/>
</g>
<!-- a1_m1 -->
<g id="node4" class="node">
<title>a1_m1</title>
<ellipse fill="none" stroke="black" cx="140.95" cy="-306" rx="40.89" ry="18"/>
<text text-anchor="middle" x="140.95" y="-302.3" font-family="Times,serif" font-size="14.00">a1_m1</text>
</g>
<!-- a1_m0&#45;&#45;a1_m1 -->
<g id="edge3" class="edge">
<title>a1_m0&#45;&#45;a1_m1</title>
<path fill="none" stroke="red" d="M117.45,-360.05C122.32,-349.05 128.65,-334.76 133.51,-323.79"/>
</g>
<!-- a3_m1 -->
<g id="node5" class="node">
<title>a3_m1</title>
<ellipse fill="none" stroke="black" cx="140.95" cy="-234" rx="40.89" ry="18"/>
<text text-anchor="middle" x="140.95" y="-230.3" font-family="Times,serif" font-size="14.00">a3_m1</text>
</g>
<!-- a1_m1&#45;&#45;a3_m1 -->
<g id="edge5" class="edge">
<title>a1_m1&#45;&#45;a3_m1</title>
<path fill="none" stroke="green" d="M140.95,-287.7C140.95,-276.85 140.95,-262.92 140.95,-252.1"/>
</g>
<!-- a3_m2 -->
<g id="node6" class="node">
<title>a3_m2</title>
<ellipse fill="none" stroke="black" cx="140.95" cy="-162" rx="40.89" ry="18"/>
<text text-anchor="middle" x="140.95" y="-158.3" font-family="Times,serif" font-size="14.00">a3_m2</text>
</g>
<!-- a3_m1&#45;&#45;a3_m2 -->
<g id="edge6" class="edge">
<title>a3_m1&#45;&#45;a3_m2</title>
<path fill="none" stroke="red" d="M140.95,-215.7C140.95,-204.85 140.95,-190.92 140.95,-180.1"/>
</g>
<!-- a4_m2 -->
<g id="node7" class="node">
<title>a4_m2</title>
<ellipse fill="none" stroke="black" cx="106.95" cy="-90" rx="40.89" ry="18"/>
<text text-anchor="middle" x="106.95" y="-86.3" font-family="Times,serif" font-size="14.00">a4_m2</text>
</g>
<!-- a3_m2&#45;&#45;a4_m2 -->
<g id="edge7" class="edge">
<title>a3_m2&#45;&#45;a4_m2</title>
<path fill="none" stroke="green" d="M132.72,-144.05C127.37,-133.05 120.43,-118.76 115.1,-107.79"/>
</g>
<!-- a5_m2 -->
<g id="node8" class="node">
<title>a5_m2</title>
<ellipse fill="none" stroke="black" cx="140.95" cy="-18" rx="40.89" ry="18"/>
<text text-anchor="middle" x="140.95" y="-14.3" font-family="Times,serif" font-size="14.00">a5_m2</text>
</g>
<!-- a3_m2&#45;&#45;a5_m2 -->
<g id="edge8" class="edge">
<title>a3_m2&#45;&#45;a5_m2</title>
<path fill="none" stroke="green" d="M147.43,-144.1C151.02,-133.84 155.12,-120.36 156.95,-108 159.28,-92.17 159.28,-87.83 156.95,-72 155.12,-59.64 151.02,-46.16 147.43,-35.9"/>
</g>
<!-- a4_m2&#45;&#45;a5_m2 -->
<g id="edge9" class="edge">
<title>a4_m2&#45;&#45;a5_m2</title>
<path fill="none" stroke="green" d="M115.18,-72.05C120.52,-61.05 127.46,-46.76 132.79,-35.79"/>
</g>
</g>
</svg>
