<?xml version="1.0" encoding="UTF-8" standalone="no"?>
<!DOCTYPE svg PUBLIC "-//W3C//DTD SVG 1.1//EN"
 "http://www.w3.org/Graphics/SVG/1.1/DTD/svg11.dtd">
<!-- Generated by graphviz version 2.43.0 (0)
 -->
<!-- Pages: 1 -->
<svg width="190pt" height="404pt"
 viewBox="0.00 0.00 189.89 404.00" xmlns="http://www.w3.org/2000/svg" xmlns:xlink="http://www.w3.org/1999/xlink">
<g id="graph0" class="graph" transform="scale(1 1) rotate(0) translate(4 400)">
<polygon fill="white" stroke="transparent" points="-4,4 -4,-400 185.89,-400 185.89,4 -4,4"/>
<!-- a0_m0 -->
<g id="node1" class="node">
<title>a0_m0</title>
<ellipse fill="none" stroke="black" cx="74.95" cy="-378" rx="40.89" ry="18"/>
<text text-anchor="middle" x="74.95" y="-374.3" font-family="Times,serif" font-size="14.00">a0_m0</text>
</g>
<!-- a1_m0 -->
<g id="node2" class="node">
<title>a1_m0</title>
<ellipse fill="none" stroke="black" cx="109.95" cy="-306" rx="40.89" ry="18"/>
<text text-anchor="middle" x="109.95" y="-302.3" font-family="Times,serif" font-size="14.00">a1_m0</text>
</g>
<!-- a0_m0&#45;&#45;a1_m0 -->
<g id="edge1" class="edge">
<title>a0_m0&#45;&#45;a1_m0</title>
<path fill="none" stroke="green" d="M83.42,-360.05C88.92,-349.05 96.06,-334.76 101.55,-323.79"/>
</g>
<!-- a2_m0 -->
<g id="node3" class="node">
<title>a2_m0</title>
<ellipse fill="none" stroke="black" cx="40.95" cy="-234" rx="40.89" ry="18"/>
<text text-anchor="middle" x="40.95" y="-230.3" font-family="Times,serif" font-size="14.00">a2_m0</text>
</g>
<!-- a0_m0&#45;&#45;a2_m0 -->
<g id="edge2" class="edge">
<title>a0_m0&#45;&#45;a2_m0</title>
<path fill="none" stroke="green" d="M69.8,-359.89C66.76,-349.54 62.94,-336.07 59.95,-324 53.79,-299.16 47.81,-270.12 44.26,-252.14"/>
</g>
<!-- a1_m0&#45;&#45;a2_m0 -->
<g id="edge4" class="edge">
<title>a1_m0&#45;&#45;a2_m0</title>
<path fill="none" stroke="green" d="M94.29,-289.12C83,-277.66 67.82,-262.26 56.54,-250.82"/>
</g>
<!-- a1_m1 -->
<g id="node4" class="node">
<title>a1_m1</title>
<ellipse fill="none" stroke="black" cx="140.95" cy="-234" rx="40.89" ry="18"/>
<text text-anchor="middle" x="140.95" y="-230.3" font-family="Times,serif" font-size="14.00">a1_m1</text>
</g>
<!-- a1_m0&#45;&#45;a1_m1 -->
<g id="edge3" class="edge">
<title>a1_m0&#45;&#45;a1_m1</title>
<path fill="none" stroke="red" d="M117.45,-288.05C122.32,-277.05 128.65,-262.76 133.51,-251.79"/>
</g>
<!-- a3_m1 -->
<g id="node5" class="node">
<title>a3_m1</title>
<ellipse fill="none" stroke="black" cx="140.95" cy="-162" rx="40.89" ry="18"/>
<text text-anchor="middle" x="140.95" y="-158.3" font-family="Times,serif" font-size="14.00">a3_m1</text>
</g>
<!-- a1_m1&#45;&#45;a3_m1 -->
<g id="edge5" class="edge">
<title>a1_m1&#45;&#45;a3_m1</title>
<path fill="none" stroke="green" d="M140.95,-215.7C140.95,-204.85 140.95,-190.92 140.95,-180.1"/>
</g>
<!-- a3_m2 -->
<g id="node6" class="node">
<title>a3_m2</title>
<ellipse fill="none" stroke="black" cx="140.95" cy="-90" rx="40.89" ry="18"/>
<text text-anchor="middle" x="140.95" y="-86.3" font-family="Times,serif" font-size="14.00">a3_m2</text>
</g>
<!-- a3_m1&#45;&#45;a3_m2 -->
<g id="edge6" class="edge">
<title>a3_m1&#45;&#45;a3_m2</title>
<path fill="none" stroke="red" d="M140.95,-143.7C140.95,-132.85 140.95,-118.92 140.95,-108.1"/>
</g>
<!-- a4_m2 -->
<g id="node7" class="node">
<title>a4_m2</title>
<ellipse fill="none" stroke="black" cx="140.95" cy="-18" rx="40.89" ry="18"/>
<text text-anchor="middle" x="140.95" y="-14.3" font-family="Times,serif" font-size="14.00">a4_m2</text>
</g>
<!-- a3_m2&#45;&#45;a4_m2 -->
<g id="edge7" class="edge">
<title>a3_m2&#45;&#45;a4_m2</title>
<path fill="none" stroke="green" d="M140.95,-71.7C140.95,-60.85 140.95,-46.92 140.95,-36.1"/>
</g>
</g>
</svg>
