<?xml version="1.0" encoding="UTF-8" standalone="no"?>
<!DOCTYPE svg PUBLIC "-//W3C//DTD SVG 1.1//EN"
 "http://www.w3.org/Graphics/SVG/1.1/DTD/svg11.dtd">
<!-- Generated by graphviz version 2.43.0 (0)
 -->
<!-- Pages: 1 -->
<svg width="355pt" height="1412pt"
 viewBox="0.00 0.00 355.49 1412.00" xmlns="http://www.w3.org/2000/svg" xmlns:xlink="http://www.w3.org/1999/xlink">
<g id="graph0" class="graph" transform="scale(1 1) rotate(0) translate(4 1408)">
<polygon fill="white" stroke="transparent" points="-4,4 -4,-1408 351.49,-1408 351.49,4 -4,4"/>
<!-- a0_m0 -->
<g id="node1" class="node">
<title>a0_m0</title>
<ellipse fill="none" stroke="black" cx="53.25" cy="-738" rx="40.89" ry="18"/>
<text text-anchor="middle" x="53.25" y="-734.3" font-family="Times,serif" font-size="14.00">a0_m0</text>
</g>
<!-- a2_m0 -->
<g id="node2" class="node">
<title>a2_m0</title>
<ellipse fill="none" stroke="black" cx="53.25" cy="-666" rx="40.89" ry="18"/>
<text text-anchor="middle" x="53.25" y="-662.3" font-family="Times,serif" font-size="14.00">a2_m0</text>
</g>
<!-- a0_m0&#45;&#45;a2_m0 -->
<g id="edge1" class="edge">
<title>a0_m0&#45;&#45;a2_m0</title>
<path fill="none" stroke="black" d="M53.25,-719.7C53.25,-708.85 53.25,-694.92 53.25,-684.1"/>
</g>
<!-- a2_m4 -->
<g id="node8" class="node">
<title>a2_m4</title>
<ellipse fill="none" stroke="black" cx="53.25" cy="-594" rx="40.89" ry="18"/>
<text text-anchor="middle" x="53.25" y="-590.3" font-family="Times,serif" font-size="14.00">a2_m4</text>
</g>
<!-- a2_m0&#45;&#45;a2_m4 -->
<g id="edge9" class="edge">
<title>a2_m0&#45;&#45;a2_m4</title>
<path fill="none" stroke="black" d="M53.25,-647.7C53.25,-636.85 53.25,-622.92 53.25,-612.1"/>
</g>
<!-- a2_m6 -->
<g id="node9" class="node">
<title>a2_m6</title>
<ellipse fill="none" stroke="black" cx="53.25" cy="-522" rx="40.89" ry="18"/>
<text text-anchor="middle" x="53.25" y="-518.3" font-family="Times,serif" font-size="14.00">a2_m6</text>
</g>
<!-- a2_m0&#45;&#45;a2_m6 -->
<g id="edge10" class="edge">
<title>a2_m0&#45;&#45;a2_m6</title>
<path fill="none" stroke="black" stroke-dasharray="5,2" d="M73.25,-650.23C84.38,-640.71 97.18,-627.28 103.25,-612 109.16,-597.13 109.16,-590.87 103.25,-576 97.18,-560.72 84.38,-547.29 73.25,-537.77"/>
</g>
<!-- a1_m0 -->
<g id="node3" class="node">
<title>a1_m0</title>
<ellipse fill="none" stroke="black" cx="53.25" cy="-810" rx="40.89" ry="18"/>
<text text-anchor="middle" x="53.25" y="-806.3" font-family="Times,serif" font-size="14.00">a1_m0</text>
</g>
<!-- a1_m0&#45;&#45;a0_m0 -->
<g id="edge2" class="edge">
<title>a1_m0&#45;&#45;a0_m0</title>
<path fill="none" stroke="black" d="M53.25,-791.7C53.25,-780.85 53.25,-766.92 53.25,-756.1"/>
</g>
<!-- a1_m0&#45;&#45;a2_m0 -->
<g id="edge3" class="edge">
<title>a1_m0&#45;&#45;a2_m0</title>
<path fill="none" stroke="black" stroke-dasharray="5,2" d="M73.25,-794.23C84.38,-784.71 97.18,-771.28 103.25,-756 109.16,-741.13 109.16,-734.87 103.25,-720 97.18,-704.72 84.38,-691.29 73.25,-681.77"/>
</g>
<!-- a1_m1 -->
<g id="node4" class="node">
<title>a1_m1</title>
<ellipse fill="none" stroke="black" cx="53.25" cy="-882" rx="40.89" ry="18"/>
<text text-anchor="middle" x="53.25" y="-878.3" font-family="Times,serif" font-size="14.00">a1_m1</text>
</g>
<!-- a1_m1&#45;&#45;a1_m0 -->
<g id="edge4" class="edge">
<title>a1_m1&#45;&#45;a1_m0</title>
<path fill="none" stroke="black" d="M53.25,-863.7C53.25,-852.85 53.25,-838.92 53.25,-828.1"/>
</g>
<!-- a1_m3 -->
<g id="node5" class="node">
<title>a1_m3</title>
<ellipse fill="none" stroke="black" cx="130.25" cy="-1314" rx="40.89" ry="18"/>
<text text-anchor="middle" x="130.25" y="-1310.3" font-family="Times,serif" font-size="14.00">a1_m3</text>
</g>
<!-- a1_m3&#45;&#45;a1_m0 -->
<g id="edge5" class="edge">
<title>a1_m3&#45;&#45;a1_m0</title>
<path fill="none" stroke="black" stroke-dasharray="5,2" d="M106.16,-1299.24C91.93,-1289.92 74.71,-1276.34 64.25,-1260 46.46,-1232.22 52.69,-1220.35 46.25,-1188 20.97,-1061.07 12.83,-1029.06 3.25,-900 2.07,-884.04 -2.66,-878.87 3.25,-864 9.32,-848.72 22.12,-835.29 33.25,-825.77"/>
</g>
<!-- a1_m3&#45;&#45;a1_m1 -->
<g id="edge6" class="edge">
<title>a1_m3&#45;&#45;a1_m1</title>
<path fill="none" stroke="black" stroke-dasharray="5,2" d="M110.64,-1298.06C99.65,-1288.49 86.86,-1275.06 80.25,-1260 23.91,-1131.73 42.76,-955.2 50.58,-900.12"/>
</g>
<!-- a4_m3 -->
<g id="node6" class="node">
<title>a4_m3</title>
<ellipse fill="none" stroke="black" cx="130.25" cy="-1242" rx="40.89" ry="18"/>
<text text-anchor="middle" x="130.25" y="-1238.3" font-family="Times,serif" font-size="14.00">a4_m3</text>
</g>
<!-- a1_m3&#45;&#45;a4_m3 -->
<g id="edge7" class="edge">
<title>a1_m3&#45;&#45;a4_m3</title>
<path fill="none" stroke="black" d="M130.25,-1295.7C130.25,-1284.85 130.25,-1270.92 130.25,-1260.1"/>
</g>
<!-- a5_m3 -->
<g id="node7" class="node">
<title>a5_m3</title>
<ellipse fill="none" stroke="black" cx="130.25" cy="-1170" rx="40.89" ry="18"/>
<text text-anchor="middle" x="130.25" y="-1166.3" font-family="Times,serif" font-size="14.00">a5_m3</text>
</g>
<!-- a1_m3&#45;&#45;a5_m3 -->
<g id="edge8" class="edge">
<title>a1_m3&#45;&#45;a5_m3</title>
<path fill="none" stroke="black" stroke-dasharray="5,2" d="M150.25,-1298.23C161.38,-1288.71 174.18,-1275.28 180.25,-1260 186.16,-1245.13 186.16,-1238.87 180.25,-1224 174.18,-1208.72 161.38,-1195.29 150.25,-1185.77"/>
</g>
<!-- a4_m3&#45;&#45;a5_m3 -->
<g id="edge29" class="edge">
<title>a4_m3&#45;&#45;a5_m3</title>
<path fill="none" stroke="black" d="M130.25,-1223.7C130.25,-1212.85 130.25,-1198.92 130.25,-1188.1"/>
</g>
<!-- a4_m2 -->
<g id="node17" class="node">
<title>a4_m2</title>
<ellipse fill="none" stroke="black" cx="267.25" cy="-954" rx="40.89" ry="18"/>
<text text-anchor="middle" x="267.25" y="-950.3" font-family="Times,serif" font-size="14.00">a4_m2</text>
</g>
<!-- a4_m3&#45;&#45;a4_m2 -->
<g id="edge28" class="edge">
<title>a4_m3&#45;&#45;a4_m2</title>
<path fill="none" stroke="black" stroke-dasharray="5,2" d="M147.87,-1225.72C158.41,-1215.82 171.43,-1202.18 180.25,-1188 226.23,-1114.14 253.73,-1012.2 263.35,-972.14"/>
</g>
<!-- a5_m2 -->
<g id="node20" class="node">
<title>a5_m2</title>
<ellipse fill="none" stroke="black" cx="130.25" cy="-1098" rx="40.89" ry="18"/>
<text text-anchor="middle" x="130.25" y="-1094.3" font-family="Times,serif" font-size="14.00">a5_m2</text>
</g>
<!-- a5_m3&#45;&#45;a5_m2 -->
<g id="edge32" class="edge">
<title>a5_m3&#45;&#45;a5_m2</title>
<path fill="none" stroke="black" d="M130.25,-1151.7C130.25,-1140.85 130.25,-1126.92 130.25,-1116.1"/>
</g>
<!-- a2_m4&#45;&#45;a2_m6 -->
<g id="edge11" class="edge">
<title>a2_m4&#45;&#45;a2_m6</title>
<path fill="none" stroke="black" d="M53.25,-575.7C53.25,-564.85 53.25,-550.92 53.25,-540.1"/>
</g>
<!-- a6_m4 -->
<g id="node10" class="node">
<title>a6_m4</title>
<ellipse fill="none" stroke="black" cx="53.25" cy="-378" rx="40.89" ry="18"/>
<text text-anchor="middle" x="53.25" y="-374.3" font-family="Times,serif" font-size="14.00">a6_m4</text>
</g>
<!-- a2_m4&#45;&#45;a6_m4 -->
<g id="edge12" class="edge">
<title>a2_m4&#45;&#45;a6_m4</title>
<path fill="none" stroke="black" stroke-dasharray="5,2" d="M73.25,-578.23C84.38,-568.71 97.18,-555.28 103.25,-540 120.97,-495.39 120.97,-476.61 103.25,-432 97.18,-416.72 84.38,-403.29 73.25,-393.77"/>
</g>
<!-- a6_m6 -->
<g id="node11" class="node">
<title>a6_m6</title>
<ellipse fill="none" stroke="black" cx="53.25" cy="-450" rx="40.89" ry="18"/>
<text text-anchor="middle" x="53.25" y="-446.3" font-family="Times,serif" font-size="14.00">a6_m6</text>
</g>
<!-- a2_m6&#45;&#45;a6_m6 -->
<g id="edge13" class="edge">
<title>a2_m6&#45;&#45;a6_m6</title>
<path fill="none" stroke="black" d="M53.25,-503.7C53.25,-492.85 53.25,-478.92 53.25,-468.1"/>
</g>
<!-- a7_m6 -->
<g id="node12" class="node">
<title>a7_m6</title>
<ellipse fill="none" stroke="black" cx="53.25" cy="-162" rx="40.89" ry="18"/>
<text text-anchor="middle" x="53.25" y="-158.3" font-family="Times,serif" font-size="14.00">a7_m6</text>
</g>
<!-- a2_m6&#45;&#45;a7_m6 -->
<g id="edge14" class="edge">
<title>a2_m6&#45;&#45;a7_m6</title>
<path fill="none" stroke="black" stroke-dasharray="5,2" d="M71.93,-505.61C82.59,-495.87 95.36,-482.43 103.25,-468 142.41,-396.43 147.61,-369.15 139.25,-288 135.9,-255.49 141.82,-243.56 124.25,-216 113.25,-198.75 94.52,-185.12 79.06,-176"/>
</g>
<!-- a8_m6 -->
<g id="node13" class="node">
<title>a8_m6</title>
<ellipse fill="none" stroke="black" cx="53.25" cy="-90" rx="40.89" ry="18"/>
<text text-anchor="middle" x="53.25" y="-86.3" font-family="Times,serif" font-size="14.00">a8_m6</text>
</g>
<!-- a2_m6&#45;&#45;a8_m6 -->
<g id="edge15" class="edge">
<title>a2_m6&#45;&#45;a8_m6</title>
<path fill="none" stroke="black" stroke-dasharray="5,2" d="M78.94,-507.87C94.79,-498.61 114.47,-484.88 127.25,-468 176.11,-403.44 160.83,-368.77 155.25,-288 150.75,-222.96 163.91,-197.92 127.25,-144 115.43,-126.62 95.92,-112.99 79.9,-103.91"/>
</g>
<!-- a6_m5 -->
<g id="node21" class="node">
<title>a6_m5</title>
<ellipse fill="none" stroke="black" cx="53.25" cy="-306" rx="40.89" ry="18"/>
<text text-anchor="middle" x="53.25" y="-302.3" font-family="Times,serif" font-size="14.00">a6_m5</text>
</g>
<!-- a6_m4&#45;&#45;a6_m5 -->
<g id="edge33" class="edge">
<title>a6_m4&#45;&#45;a6_m5</title>
<path fill="none" stroke="black" d="M53.25,-359.7C53.25,-348.85 53.25,-334.92 53.25,-324.1"/>
</g>
<!-- a6_m6&#45;&#45;a6_m4 -->
<g id="edge36" class="edge">
<title>a6_m6&#45;&#45;a6_m4</title>
<path fill="none" stroke="black" d="M53.25,-431.7C53.25,-420.85 53.25,-406.92 53.25,-396.1"/>
</g>
<!-- a6_m6&#45;&#45;a7_m6 -->
<g id="edge38" class="edge">
<title>a6_m6&#45;&#45;a7_m6</title>
<path fill="none" stroke="black" stroke-dasharray="5,2" d="M73.25,-434.23C84.38,-424.71 97.18,-411.28 103.25,-396 132.79,-321.65 132.79,-290.35 103.25,-216 97.18,-200.72 84.38,-187.29 73.25,-177.77"/>
</g>
<!-- a6_m6&#45;&#45;a8_m6 -->
<g id="edge39" class="edge">
<title>a6_m6&#45;&#45;a8_m6</title>
<path fill="none" stroke="black" stroke-dasharray="5,2" d="M79.06,-436C94.52,-426.88 113.25,-413.25 124.25,-396 141.82,-368.44 135.9,-356.51 139.25,-324 147.61,-242.85 143.79,-214.8 103.25,-144 95.08,-129.73 82.31,-116.28 71.73,-106.51"/>
</g>
<!-- a6_m6&#45;&#45;a6_m5 -->
<g id="edge37" class="edge">
<title>a6_m6&#45;&#45;a6_m5</title>
<path fill="none" stroke="black" stroke-dasharray="5,2" d="M73.25,-434.23C84.38,-424.71 97.18,-411.28 103.25,-396 109.16,-381.13 109.16,-374.87 103.25,-360 97.18,-344.72 84.38,-331.29 73.25,-321.77"/>
</g>
<!-- a7_m6&#45;&#45;a8_m6 -->
<g id="edge42" class="edge">
<title>a7_m6&#45;&#45;a8_m6</title>
<path fill="none" stroke="black" d="M53.25,-143.7C53.25,-132.85 53.25,-118.92 53.25,-108.1"/>
</g>
<!-- a8_m5 -->
<g id="node23" class="node">
<title>a8_m5</title>
<ellipse fill="none" stroke="black" cx="53.25" cy="-18" rx="40.89" ry="18"/>
<text text-anchor="middle" x="53.25" y="-14.3" font-family="Times,serif" font-size="14.00">a8_m5</text>
</g>
<!-- a8_m6&#45;&#45;a8_m5 -->
<g id="edge43" class="edge">
<title>a8_m6&#45;&#45;a8_m5</title>
<path fill="none" stroke="black" d="M53.25,-71.7C53.25,-60.85 53.25,-46.92 53.25,-36.1"/>
</g>
<!-- a3_m1 -->
<g id="node14" class="node">
<title>a3_m1</title>
<ellipse fill="none" stroke="black" cx="129.25" cy="-954" rx="40.89" ry="18"/>
<text text-anchor="middle" x="129.25" y="-950.3" font-family="Times,serif" font-size="14.00">a3_m1</text>
</g>
<!-- a3_m1&#45;&#45;a1_m1 -->
<g id="edge16" class="edge">
<title>a3_m1&#45;&#45;a1_m1</title>
<path fill="none" stroke="black" d="M112.38,-937.46C99.79,-925.86 82.65,-910.08 70.07,-898.49"/>
</g>
<!-- a3_m7 -->
<g id="node15" class="node">
<title>a3_m7</title>
<ellipse fill="none" stroke="black" cx="153.25" cy="-882" rx="40.89" ry="18"/>
<text text-anchor="middle" x="153.25" y="-878.3" font-family="Times,serif" font-size="14.00">a3_m7</text>
</g>
<!-- a3_m1&#45;&#45;a3_m7 -->
<g id="edge17" class="edge">
<title>a3_m1&#45;&#45;a3_m7</title>
<path fill="none" stroke="black" d="M135.06,-936.05C138.78,-925.21 143.59,-911.18 147.33,-900.28"/>
</g>
<!-- a9_m7 -->
<g id="node19" class="node">
<title>a9_m7</title>
<ellipse fill="none" stroke="black" cx="153.25" cy="-810" rx="40.89" ry="18"/>
<text text-anchor="middle" x="153.25" y="-806.3" font-family="Times,serif" font-size="14.00">a9_m7</text>
</g>
<!-- a3_m7&#45;&#45;a9_m7 -->
<g id="edge27" class="edge">
<title>a3_m7&#45;&#45;a9_m7</title>
<path fill="none" stroke="black" d="M153.25,-863.7C153.25,-852.85 153.25,-838.92 153.25,-828.1"/>
</g>
<!-- a3_m2 -->
<g id="node16" class="node">
<title>a3_m2</title>
<ellipse fill="none" stroke="black" cx="130.25" cy="-1026" rx="40.89" ry="18"/>
<text text-anchor="middle" x="130.25" y="-1022.3" font-family="Times,serif" font-size="14.00">a3_m2</text>
</g>
<!-- a3_m2&#45;&#45;a3_m1 -->
<g id="edge18" class="edge">
<title>a3_m2&#45;&#45;a3_m1</title>
<path fill="none" stroke="black" d="M130,-1007.7C129.85,-996.85 129.65,-982.92 129.49,-972.1"/>
</g>
<!-- a3_m2&#45;&#45;a3_m7 -->
<g id="edge19" class="edge">
<title>a3_m2&#45;&#45;a3_m7</title>
<path fill="none" stroke="black" stroke-dasharray="5,2" d="M149.86,-1010.15C160.77,-1000.6 173.31,-987.17 179.25,-972 188.93,-947.27 175.33,-917.44 164.44,-899.37"/>
</g>
<!-- a3_m2&#45;&#45;a4_m2 -->
<g id="edge20" class="edge">
<title>a3_m2&#45;&#45;a4_m2</title>
<path fill="none" stroke="black" d="M156.02,-1011.83C180.51,-999.32 217.14,-980.6 241.6,-968.11"/>
</g>
<!-- a3_m3 -->
<g id="node18" class="node">
<title>a3_m3</title>
<ellipse fill="none" stroke="black" cx="130.25" cy="-1386" rx="40.89" ry="18"/>
<text text-anchor="middle" x="130.25" y="-1382.3" font-family="Times,serif" font-size="14.00">a3_m3</text>
</g>
<!-- a3_m3&#45;&#45;a1_m3 -->
<g id="edge21" class="edge">
<title>a3_m3&#45;&#45;a1_m3</title>
<path fill="none" stroke="black" d="M130.25,-1367.7C130.25,-1356.85 130.25,-1342.92 130.25,-1332.1"/>
</g>
<!-- a3_m3&#45;&#45;a4_m3 -->
<g id="edge25" class="edge">
<title>a3_m3&#45;&#45;a4_m3</title>
<path fill="none" stroke="black" stroke-dasharray="5,2" d="M150.25,-1370.23C161.38,-1360.71 174.18,-1347.28 180.25,-1332 186.16,-1317.13 186.16,-1310.87 180.25,-1296 174.18,-1280.72 161.38,-1267.29 150.25,-1257.77"/>
</g>
<!-- a3_m3&#45;&#45;a5_m3 -->
<g id="edge26" class="edge">
<title>a3_m3&#45;&#45;a5_m3</title>
<path fill="none" stroke="black" stroke-dasharray="5,2" d="M156.52,-1371.94C171.44,-1362.96 188.79,-1349.49 197.25,-1332 218.16,-1288.79 218.16,-1267.21 197.25,-1224 188.79,-1206.51 171.44,-1193.04 156.52,-1184.06"/>
</g>
<!-- a3_m3&#45;&#45;a3_m1 -->
<g id="edge22" class="edge">
<title>a3_m3&#45;&#45;a3_m1</title>
<path fill="none" stroke="black" stroke-dasharray="5,2" d="M162.35,-1374.62C182,-1366.42 205.56,-1352.82 217.25,-1332 252.41,-1269.41 194.16,-1035.52 180.25,-1008 172.76,-993.18 159.73,-979.75 148.71,-970.11"/>
</g>
<!-- a3_m3&#45;&#45;a3_m7 -->
<g id="edge24" class="edge">
<title>a3_m3&#45;&#45;a3_m7</title>
<path fill="none" stroke="black" stroke-dasharray="5,2" d="M164.54,-1376.09C187.89,-1368.26 217.64,-1354.52 235.25,-1332 336.33,-1202.73 298.91,-1135.07 317.25,-972 319.04,-956.1 326.66,-948.94 317.25,-936 289.34,-897.65 233.13,-886.47 194.35,-883.52"/>
</g>
<!-- a3_m3&#45;&#45;a3_m2 -->
<g id="edge23" class="edge">
<title>a3_m3&#45;&#45;a3_m2</title>
<path fill="none" stroke="black" stroke-dasharray="5,2" d="M169.07,-1380.14C220.81,-1372.78 308.13,-1356.95 327.25,-1332 408.74,-1225.69 219.21,-1085.72 152.44,-1041.22"/>
</g>
<!-- a5_m2&#45;&#45;a3_m2 -->
<g id="edge30" class="edge">
<title>a5_m2&#45;&#45;a3_m2</title>
<path fill="none" stroke="black" d="M130.25,-1079.7C130.25,-1068.85 130.25,-1054.92 130.25,-1044.1"/>
</g>
<!-- a5_m2&#45;&#45;a4_m2 -->
<g id="edge31" class="edge">
<title>a5_m2&#45;&#45;a4_m2</title>
<path fill="none" stroke="black" stroke-dasharray="5,2" d="M145.43,-1081.26C171.77,-1053.97 225.62,-998.15 252,-970.81"/>
</g>
<!-- a7_m5 -->
<g id="node22" class="node">
<title>a7_m5</title>
<ellipse fill="none" stroke="black" cx="53.25" cy="-234" rx="40.89" ry="18"/>
<text text-anchor="middle" x="53.25" y="-230.3" font-family="Times,serif" font-size="14.00">a7_m5</text>
</g>
<!-- a6_m5&#45;&#45;a7_m5 -->
<g id="edge34" class="edge">
<title>a6_m5&#45;&#45;a7_m5</title>
<path fill="none" stroke="black" d="M53.25,-287.7C53.25,-276.85 53.25,-262.92 53.25,-252.1"/>
</g>
<!-- a6_m5&#45;&#45;a8_m5 -->
<g id="edge35" class="edge">
<title>a6_m5&#45;&#45;a8_m5</title>
<path fill="none" stroke="black" stroke-dasharray="5,2" d="M71.79,-289.53C82.4,-279.77 95.17,-266.32 103.25,-252 119.57,-223.07 118.76,-212.91 123.25,-180 129.73,-132.44 144.62,-114.98 123.25,-72 114.29,-53.98 95.96,-40.45 80.3,-31.58"/>
</g>
<!-- a7_m5&#45;&#45;a7_m6 -->
<g id="edge40" class="edge">
<title>a7_m5&#45;&#45;a7_m6</title>
<path fill="none" stroke="black" d="M53.25,-215.7C53.25,-204.85 53.25,-190.92 53.25,-180.1"/>
</g>
<!-- a7_m5&#45;&#45;a8_m5 -->
<g id="edge41" class="edge">
<title>a7_m5&#45;&#45;a8_m5</title>
<path fill="none" stroke="black" stroke-dasharray="5,2" d="M73.25,-218.23C84.38,-208.71 97.18,-195.28 103.25,-180 120.97,-135.39 120.97,-116.61 103.25,-72 97.18,-56.72 84.38,-43.29 73.25,-33.77"/>
</g>
</g>
</svg>
