<?xml version="1.0" encoding="UTF-8" standalone="no"?>
<!DOCTYPE svg PUBLIC "-//W3C//DTD SVG 1.1//EN"
 "http://www.w3.org/Graphics/SVG/1.1/DTD/svg11.dtd">
<!-- Generated by graphviz version 2.43.0 (0)
 -->
<!-- Pages: 1 -->
<svg width="205pt" height="404pt"
 viewBox="0.00 0.00 204.55 404.00" xmlns="http://www.w3.org/2000/svg" xmlns:xlink="http://www.w3.org/1999/xlink">
<g id="graph0" class="graph" transform="scale(1 1) rotate(0) translate(4 400)">
<polygon fill="white" stroke="transparent" points="-4,4 -4,-400 200.55,-400 200.55,4 -4,4"/>
<!-- a0_m0 -->
<g id="node1" class="node">
<title>a0_m0</title>
<ellipse fill="none" stroke="black" cx="40.95" cy="-90" rx="40.89" ry="18"/>
<text text-anchor="middle" x="40.95" y="-86.3" font-family="Times,serif" font-size="14.00">a0_m0</text>
</g>
<!-- a2_m0 -->
<g id="node2" class="node">
<title>a2_m0</title>
<ellipse fill="none" stroke="black" cx="40.95" cy="-18" rx="40.89" ry="18"/>
<text text-anchor="middle" x="40.95" y="-14.3" font-family="Times,serif" font-size="14.00">a2_m0</text>
</g>
<!-- a0_m0&#45;&#45;a2_m0 -->
<g id="edge1" class="edge">
<title>a0_m0&#45;&#45;a2_m0</title>
<path fill="none" stroke="black" d="M40.95,-71.7C40.95,-60.85 40.95,-46.92 40.95,-36.1"/>
</g>
<!-- a1_m0 -->
<g id="node3" class="node">
<title>a1_m0</title>
<ellipse fill="none" stroke="black" cx="40.95" cy="-162" rx="40.89" ry="18"/>
<text text-anchor="middle" x="40.95" y="-158.3" font-family="Times,serif" font-size="14.00">a1_m0</text>
</g>
<!-- a1_m0&#45;&#45;a0_m0 -->
<g id="edge2" class="edge">
<title>a1_m0&#45;&#45;a0_m0</title>
<path fill="none" stroke="black" d="M40.95,-143.7C40.95,-132.85 40.95,-118.92 40.95,-108.1"/>
</g>
<!-- a1_m0&#45;&#45;a2_m0 -->
<g id="edge3" class="edge">
<title>a1_m0&#45;&#45;a2_m0</title>
<path fill="none" stroke="black" stroke-dasharray="5,2" d="M60.95,-146.23C72.08,-136.71 84.88,-123.28 90.95,-108 96.85,-93.13 96.85,-86.87 90.95,-72 84.88,-56.72 72.08,-43.29 60.95,-33.77"/>
</g>
<!-- a1_m1 -->
<g id="node4" class="node">
<title>a1_m1</title>
<ellipse fill="none" stroke="black" cx="40.95" cy="-234" rx="40.89" ry="18"/>
<text text-anchor="middle" x="40.95" y="-230.3" font-family="Times,serif" font-size="14.00">a1_m1</text>
</g>
<!-- a1_m1&#45;&#45;a1_m0 -->
<g id="edge4" class="edge">
<title>a1_m1&#45;&#45;a1_m0</title>
<path fill="none" stroke="black" d="M40.95,-215.7C40.95,-204.85 40.95,-190.92 40.95,-180.1"/>
</g>
<!-- a3_m1 -->
<g id="node5" class="node">
<title>a3_m1</title>
<ellipse fill="none" stroke="black" cx="40.95" cy="-306" rx="40.89" ry="18"/>
<text text-anchor="middle" x="40.95" y="-302.3" font-family="Times,serif" font-size="14.00">a3_m1</text>
</g>
<!-- a3_m1&#45;&#45;a1_m1 -->
<g id="edge5" class="edge">
<title>a3_m1&#45;&#45;a1_m1</title>
<path fill="none" stroke="black" d="M40.95,-287.7C40.95,-276.85 40.95,-262.92 40.95,-252.1"/>
</g>
<!-- a3_m2 -->
<g id="node6" class="node">
<title>a3_m2</title>
<ellipse fill="none" stroke="black" cx="90.95" cy="-378" rx="40.89" ry="18"/>
<text text-anchor="middle" x="90.95" y="-374.3" font-family="Times,serif" font-size="14.00">a3_m2</text>
</g>
<!-- a3_m2&#45;&#45;a3_m1 -->
<g id="edge6" class="edge">
<title>a3_m2&#45;&#45;a3_m1</title>
<path fill="none" stroke="black" d="M79.1,-360.41C71.13,-349.25 60.66,-334.6 52.71,-323.47"/>
</g>
<!-- a4_m2 -->
<g id="node7" class="node">
<title>a4_m2</title>
<ellipse fill="none" stroke="black" cx="140.95" cy="-306" rx="40.89" ry="18"/>
<text text-anchor="middle" x="140.95" y="-302.3" font-family="Times,serif" font-size="14.00">a4_m2</text>
</g>
<!-- a3_m2&#45;&#45;a4_m2 -->
<g id="edge7" class="edge">
<title>a3_m2&#45;&#45;a4_m2</title>
<path fill="none" stroke="black" d="M102.8,-360.41C110.77,-349.25 121.23,-334.6 129.18,-323.47"/>
</g>
<!-- a5_m2 -->
<g id="node8" class="node">
<title>a5_m2</title>
<ellipse fill="none" stroke="black" cx="140.95" cy="-234" rx="40.89" ry="18"/>
<text text-anchor="middle" x="140.95" y="-230.3" font-family="Times,serif" font-size="14.00">a5_m2</text>
</g>
<!-- a3_m2&#45;&#45;a5_m2 -->
<g id="edge8" class="edge">
<title>a3_m2&#45;&#45;a5_m2</title>
<path fill="none" stroke="black" stroke-dasharray="5,2" d="M126.19,-368.41C149,-360.82 176.97,-347.23 190.95,-324 199.2,-310.29 196.85,-302.87 190.95,-288 184.88,-272.72 172.08,-259.29 160.95,-249.77"/>
</g>
<!-- a4_m2&#45;&#45;a5_m2 -->
<g id="edge9" class="edge">
<title>a4_m2&#45;&#45;a5_m2</title>
<path fill="none" stroke="black" d="M140.95,-287.7C140.95,-276.85 140.95,-262.92 140.95,-252.1"/>
</g>
</g>
</svg>
