<?xml version="1.0" encoding="UTF-8" standalone="no"?>
<!DOCTYPE svg PUBLIC "-//W3C//DTD SVG 1.1//EN"
 "http://www.w3.org/Graphics/SVG/1.1/DTD/svg11.dtd">
<!-- Generated by graphviz version 2.43.0 (0)
 -->
<!-- Pages: 1 -->
<svg width="824pt" height="1844pt"
 viewBox="0.00 0.00 824.28 1844.00" xmlns="http://www.w3.org/2000/svg" xmlns:xlink="http://www.w3.org/1999/xlink">
<g id="graph0" class="graph" transform="scale(1 1) rotate(0) translate(4 1840)">
<polygon fill="white" stroke="transparent" points="-4,4 -4,-1840 820.28,-1840 820.28,4 -4,4"/>
<!-- a0_m0 -->
<g id="node1" class="node">
<title>a0_m0</title>
<ellipse fill="none" stroke="black" cx="151.95" cy="-882" rx="40.89" ry="18"/>
<text text-anchor="middle" x="151.95" y="-878.3" font-family="Times,serif" font-size="14.00">a0_m0</text>
</g>
<!-- a2_m0 -->
<g id="node2" class="node">
<title>a2_m0</title>
<ellipse fill="none" stroke="black" cx="129.95" cy="-810" rx="40.89" ry="18"/>
<text text-anchor="middle" x="129.95" y="-806.3" font-family="Times,serif" font-size="14.00">a2_m0</text>
</g>
<!-- a0_m0&#45;&#45;a2_m0 -->
<g id="edge1" class="edge">
<title>a0_m0&#45;&#45;a2_m0</title>
<path fill="none" stroke="black" d="M146.62,-864.05C143.21,-853.21 138.8,-839.18 135.38,-828.28"/>
</g>
<!-- a2_m4 -->
<g id="node8" class="node">
<title>a2_m4</title>
<ellipse fill="none" stroke="black" cx="118.95" cy="-738" rx="40.89" ry="18"/>
<text text-anchor="middle" x="118.95" y="-734.3" font-family="Times,serif" font-size="14.00">a2_m4</text>
</g>
<!-- a2_m0&#45;&#45;a2_m4 -->
<g id="edge9" class="edge">
<title>a2_m0&#45;&#45;a2_m4</title>
<path fill="none" stroke="black" d="M127.23,-791.7C125.52,-780.85 123.33,-766.92 121.63,-756.1"/>
</g>
<!-- a2_m6 -->
<g id="node9" class="node">
<title>a2_m6</title>
<ellipse fill="none" stroke="black" cx="113.95" cy="-666" rx="40.89" ry="18"/>
<text text-anchor="middle" x="113.95" y="-662.3" font-family="Times,serif" font-size="14.00">a2_m6</text>
</g>
<!-- a2_m0&#45;&#45;a2_m6 -->
<g id="edge10" class="edge">
<title>a2_m0&#45;&#45;a2_m6</title>
<path fill="none" stroke="black" stroke-dasharray="5,2" d="M146.03,-792.92C154.64,-783.14 164.39,-769.89 168.95,-756 173.94,-740.8 175.21,-734.72 168.95,-720 162.2,-704.14 148.12,-690.72 135.9,-681.35"/>
</g>
<!-- a1_m0 -->
<g id="node3" class="node">
<title>a1_m0</title>
<ellipse fill="none" stroke="black" cx="152.95" cy="-954" rx="40.89" ry="18"/>
<text text-anchor="middle" x="152.95" y="-950.3" font-family="Times,serif" font-size="14.00">a1_m0</text>
</g>
<!-- a1_m0&#45;&#45;a0_m0 -->
<g id="edge2" class="edge">
<title>a1_m0&#45;&#45;a0_m0</title>
<path fill="none" stroke="black" d="M152.7,-935.7C152.54,-924.85 152.35,-910.92 152.19,-900.1"/>
</g>
<!-- a1_m0&#45;&#45;a2_m0 -->
<g id="edge3" class="edge">
<title>a1_m0&#45;&#45;a2_m0</title>
<path fill="none" stroke="black" stroke-dasharray="5,2" d="M172.56,-938.15C183.47,-928.6 196.01,-915.17 201.95,-900 207.78,-885.1 209.17,-878.28 201.95,-864 192.7,-845.72 173.85,-832.2 157.75,-823.39"/>
</g>
<!-- a1_m1 -->
<g id="node4" class="node">
<title>a1_m1</title>
<ellipse fill="none" stroke="black" cx="196.95" cy="-1026" rx="40.89" ry="18"/>
<text text-anchor="middle" x="196.95" y="-1022.3" font-family="Times,serif" font-size="14.00">a1_m1</text>
</g>
<!-- a1_m1&#45;&#45;a1_m0 -->
<g id="edge4" class="edge">
<title>a1_m1&#45;&#45;a1_m0</title>
<path fill="none" stroke="black" d="M186.52,-1008.41C179.51,-997.25 170.3,-982.6 163.3,-971.47"/>
</g>
<!-- a1_m3 -->
<g id="node5" class="node">
<title>a1_m3</title>
<ellipse fill="none" stroke="black" cx="249.95" cy="-1098" rx="40.89" ry="18"/>
<text text-anchor="middle" x="249.95" y="-1094.3" font-family="Times,serif" font-size="14.00">a1_m3</text>
</g>
<!-- a1_m3&#45;&#45;a1_m0 -->
<g id="edge5" class="edge">
<title>a1_m3&#45;&#45;a1_m0</title>
<path fill="none" stroke="black" stroke-dasharray="5,2" d="M254.03,-1079.87C257.57,-1060.85 260.26,-1029.94 246.95,-1008 233.63,-986.06 207.64,-972.42 186.36,-964.49"/>
</g>
<!-- a1_m3&#45;&#45;a1_m1 -->
<g id="edge6" class="edge">
<title>a1_m3&#45;&#45;a1_m1</title>
<path fill="none" stroke="black" d="M237.65,-1080.76C229.21,-1069.62 218.04,-1054.87 209.54,-1043.63"/>
</g>
<!-- a4_m3 -->
<g id="node6" class="node">
<title>a4_m3</title>
<ellipse fill="none" stroke="black" cx="337.95" cy="-1026" rx="40.89" ry="18"/>
<text text-anchor="middle" x="337.95" y="-1022.3" font-family="Times,serif" font-size="14.00">a4_m3</text>
</g>
<!-- a1_m3&#45;&#45;a4_m3 -->
<g id="edge7" class="edge">
<title>a1_m3&#45;&#45;a4_m3</title>
<path fill="none" stroke="black" d="M269.04,-1081.81C283.8,-1070.07 304.14,-1053.89 318.89,-1042.16"/>
</g>
<!-- a5_m3 -->
<g id="node7" class="node">
<title>a5_m3</title>
<ellipse fill="none" stroke="black" cx="338.95" cy="-954" rx="40.89" ry="18"/>
<text text-anchor="middle" x="338.95" y="-950.3" font-family="Times,serif" font-size="14.00">a5_m3</text>
</g>
<!-- a1_m3&#45;&#45;a5_m3 -->
<g id="edge8" class="edge">
<title>a1_m3&#45;&#45;a5_m3</title>
<path fill="none" stroke="black" stroke-dasharray="5,2" d="M289.8,-1093.63C322.22,-1088.56 366.07,-1075.83 387.95,-1044 404.83,-1019.43 378.07,-988.51 357.93,-970.34"/>
</g>
<!-- a4_m3&#45;&#45;a5_m3 -->
<g id="edge41" class="edge">
<title>a4_m3&#45;&#45;a5_m3</title>
<path fill="none" stroke="black" d="M338.19,-1007.7C338.35,-996.85 338.55,-982.92 338.7,-972.1"/>
</g>
<!-- a4_m2 -->
<g id="node17" class="node">
<title>a4_m2</title>
<ellipse fill="none" stroke="black" cx="342.95" cy="-810" rx="40.89" ry="18"/>
<text text-anchor="middle" x="342.95" y="-806.3" font-family="Times,serif" font-size="14.00">a4_m2</text>
</g>
<!-- a4_m3&#45;&#45;a4_m2 -->
<g id="edge38" class="edge">
<title>a4_m3&#45;&#45;a4_m2</title>
<path fill="none" stroke="black" stroke-dasharray="5,2" d="M358.03,-1010.18C369.27,-1000.65 382.32,-987.22 388.95,-972 401.75,-942.62 392.06,-932.04 392.95,-900 393.39,-884.01 398.85,-878.87 392.95,-864 386.88,-848.72 374.08,-835.29 362.95,-825.77"/>
</g>
<!-- a4_m10 -->
<g id="node25" class="node">
<title>a4_m10</title>
<ellipse fill="none" stroke="black" cx="342.95" cy="-738" rx="46.59" ry="18"/>
<text text-anchor="middle" x="342.95" y="-734.3" font-family="Times,serif" font-size="14.00">a4_m10</text>
</g>
<!-- a4_m3&#45;&#45;a4_m10 -->
<g id="edge39" class="edge">
<title>a4_m3&#45;&#45;a4_m10</title>
<path fill="none" stroke="black" stroke-dasharray="5,2" d="M366.08,-1012.83C439.55,-979.39 626.74,-882.56 555.95,-792 535.47,-765.8 443.94,-750.7 387.74,-743.73"/>
</g>
<!-- a4_m12 -->
<g id="node26" class="node">
<title>a4_m12</title>
<ellipse fill="none" stroke="black" cx="342.95" cy="-666" rx="46.59" ry="18"/>
<text text-anchor="middle" x="342.95" y="-662.3" font-family="Times,serif" font-size="14.00">a4_m12</text>
</g>
<!-- a4_m3&#45;&#45;a4_m12 -->
<g id="edge40" class="edge">
<title>a4_m3&#45;&#45;a4_m12</title>
<path fill="none" stroke="black" stroke-dasharray="5,2" d="M373.13,-1016.56C404.23,-1008.16 450.1,-993.41 485.95,-972 599.65,-904.1 730.11,-821.41 644.95,-720 628.56,-700.48 467.7,-680.51 387.68,-671.68"/>
</g>
<!-- a5_m2 -->
<g id="node18" class="node">
<title>a5_m2</title>
<ellipse fill="none" stroke="black" cx="342.95" cy="-882" rx="40.89" ry="18"/>
<text text-anchor="middle" x="342.95" y="-878.3" font-family="Times,serif" font-size="14.00">a5_m2</text>
</g>
<!-- a5_m3&#45;&#45;a5_m2 -->
<g id="edge50" class="edge">
<title>a5_m3&#45;&#45;a5_m2</title>
<path fill="none" stroke="black" d="M339.94,-935.7C340.56,-924.85 341.35,-910.92 341.97,-900.1"/>
</g>
<!-- a5_m13 -->
<g id="node32" class="node">
<title>a5_m13</title>
<ellipse fill="none" stroke="black" cx="499.95" cy="-810" rx="46.59" ry="18"/>
<text text-anchor="middle" x="499.95" y="-806.3" font-family="Times,serif" font-size="14.00">a5_m13</text>
</g>
<!-- a5_m3&#45;&#45;a5_m13 -->
<g id="edge51" class="edge">
<title>a5_m3&#45;&#45;a5_m13</title>
<path fill="none" stroke="black" stroke-dasharray="5,2" d="M356.48,-937.53C387.29,-910.36 450.8,-854.34 481.94,-826.88"/>
</g>
<!-- a2_m4&#45;&#45;a2_m6 -->
<g id="edge11" class="edge">
<title>a2_m4&#45;&#45;a2_m6</title>
<path fill="none" stroke="black" d="M117.71,-719.7C116.94,-708.85 115.94,-694.92 115.17,-684.1"/>
</g>
<!-- a6_m4 -->
<g id="node10" class="node">
<title>a6_m4</title>
<ellipse fill="none" stroke="black" cx="40.95" cy="-522" rx="40.89" ry="18"/>
<text text-anchor="middle" x="40.95" y="-518.3" font-family="Times,serif" font-size="14.00">a6_m4</text>
</g>
<!-- a2_m4&#45;&#45;a6_m4 -->
<g id="edge12" class="edge">
<title>a2_m4&#45;&#45;a6_m4</title>
<path fill="none" stroke="black" stroke-dasharray="5,2" d="M136.99,-721.83C147.02,-712.17 158.54,-698.73 163.95,-684 170.51,-666.13 169.42,-588.43 160.95,-576 142.41,-548.81 106.57,-535.43 78.86,-528.93"/>
</g>
<!-- a6_m6 -->
<g id="node11" class="node">
<title>a6_m6</title>
<ellipse fill="none" stroke="black" cx="110.95" cy="-594" rx="40.89" ry="18"/>
<text text-anchor="middle" x="110.95" y="-590.3" font-family="Times,serif" font-size="14.00">a6_m6</text>
</g>
<!-- a2_m6&#45;&#45;a6_m6 -->
<g id="edge13" class="edge">
<title>a2_m6&#45;&#45;a6_m6</title>
<path fill="none" stroke="black" d="M113.2,-647.7C112.74,-636.85 112.14,-622.92 111.68,-612.1"/>
</g>
<!-- a7_m6 -->
<g id="node12" class="node">
<title>a7_m6</title>
<ellipse fill="none" stroke="black" cx="40.95" cy="-306" rx="40.89" ry="18"/>
<text text-anchor="middle" x="40.95" y="-302.3" font-family="Times,serif" font-size="14.00">a7_m6</text>
</g>
<!-- a2_m6&#45;&#45;a7_m6 -->
<g id="edge14" class="edge">
<title>a2_m6&#45;&#45;a7_m6</title>
<path fill="none" stroke="black" stroke-dasharray="5,2" d="M132.77,-649.98C143.24,-640.38 155.27,-626.95 160.95,-612 166.62,-597.04 162.74,-591.9 160.95,-576 149.87,-478.09 164.73,-442.57 110.95,-360 99.88,-343.01 81.42,-329.37 66.23,-320.18"/>
</g>
<!-- a8_m6 -->
<g id="node13" class="node">
<title>a8_m6</title>
<ellipse fill="none" stroke="black" cx="40.95" cy="-234" rx="40.89" ry="18"/>
<text text-anchor="middle" x="40.95" y="-230.3" font-family="Times,serif" font-size="14.00">a8_m6</text>
</g>
<!-- a2_m6&#45;&#45;a8_m6 -->
<g id="edge15" class="edge">
<title>a2_m6&#45;&#45;a8_m6</title>
<path fill="none" stroke="black" stroke-dasharray="5,2" d="M138.69,-651.57C152.73,-642.46 169.04,-628.97 176.95,-612 210.8,-539.28 181.1,-510.35 163.95,-432 149.46,-365.82 154.32,-342.4 113.95,-288 101.44,-271.15 82.02,-257.42 66.36,-248.16"/>
</g>
<!-- a6_m5 -->
<g id="node34" class="node">
<title>a6_m5</title>
<ellipse fill="none" stroke="black" cx="40.95" cy="-450" rx="40.89" ry="18"/>
<text text-anchor="middle" x="40.95" y="-446.3" font-family="Times,serif" font-size="14.00">a6_m5</text>
</g>
<!-- a6_m4&#45;&#45;a6_m5 -->
<g id="edge53" class="edge">
<title>a6_m4&#45;&#45;a6_m5</title>
<path fill="none" stroke="black" d="M40.95,-503.7C40.95,-492.85 40.95,-478.92 40.95,-468.1"/>
</g>
<!-- a6_m6&#45;&#45;a6_m4 -->
<g id="edge56" class="edge">
<title>a6_m6&#45;&#45;a6_m4</title>
<path fill="none" stroke="black" d="M95.06,-577.12C83.61,-565.66 68.21,-550.26 56.77,-538.82"/>
</g>
<!-- a6_m6&#45;&#45;a7_m6 -->
<g id="edge58" class="edge">
<title>a6_m6&#45;&#45;a7_m6</title>
<path fill="none" stroke="black" stroke-dasharray="5,2" d="M113.16,-575.97C117.57,-536.15 124.38,-434.67 90.95,-360 84.23,-344.99 71.44,-331.56 60.48,-321.97"/>
</g>
<!-- a6_m6&#45;&#45;a8_m6 -->
<g id="edge59" class="edge">
<title>a6_m6&#45;&#45;a8_m6</title>
<path fill="none" stroke="black" stroke-dasharray="5,2" d="M119.04,-576.26C123.53,-566.05 128.65,-552.58 130.95,-540 134.16,-522.36 129.72,-444.9 127.95,-432 118.94,-366.54 123.41,-345.55 90.95,-288 82.87,-273.68 70.1,-260.23 59.49,-250.47"/>
</g>
<!-- a6_m6&#45;&#45;a6_m5 -->
<g id="edge57" class="edge">
<title>a6_m6&#45;&#45;a6_m5</title>
<path fill="none" stroke="black" stroke-dasharray="5,2" d="M109.81,-576C107.98,-557.38 103.21,-527.07 90.95,-504 83.23,-489.48 70.45,-476.04 59.75,-466.33"/>
</g>
<!-- a7_m6&#45;&#45;a8_m6 -->
<g id="edge62" class="edge">
<title>a7_m6&#45;&#45;a8_m6</title>
<path fill="none" stroke="black" d="M40.95,-287.7C40.95,-276.85 40.95,-262.92 40.95,-252.1"/>
</g>
<!-- a8_m5 -->
<g id="node36" class="node">
<title>a8_m5</title>
<ellipse fill="none" stroke="black" cx="40.95" cy="-162" rx="40.89" ry="18"/>
<text text-anchor="middle" x="40.95" y="-158.3" font-family="Times,serif" font-size="14.00">a8_m5</text>
</g>
<!-- a8_m6&#45;&#45;a8_m5 -->
<g id="edge63" class="edge">
<title>a8_m6&#45;&#45;a8_m5</title>
<path fill="none" stroke="black" d="M40.95,-215.7C40.95,-204.85 40.95,-190.92 40.95,-180.1"/>
</g>
<!-- a3_m1 -->
<g id="node14" class="node">
<title>a3_m1</title>
<ellipse fill="none" stroke="black" cx="249.95" cy="-1314" rx="40.89" ry="18"/>
<text text-anchor="middle" x="249.95" y="-1310.3" font-family="Times,serif" font-size="14.00">a3_m1</text>
</g>
<!-- a3_m1&#45;&#45;a1_m1 -->
<g id="edge16" class="edge">
<title>a3_m1&#45;&#45;a1_m1</title>
<path fill="none" stroke="black" stroke-dasharray="5,2" d="M230.02,-1298.2C218.91,-1288.67 206.12,-1275.24 199.95,-1260 169.44,-1184.63 184.99,-1083.97 193.08,-1044.21"/>
</g>
<!-- a3_m2 -->
<g id="node15" class="node">
<title>a3_m2</title>
<ellipse fill="none" stroke="black" cx="249.95" cy="-1242" rx="40.89" ry="18"/>
<text text-anchor="middle" x="249.95" y="-1238.3" font-family="Times,serif" font-size="14.00">a3_m2</text>
</g>
<!-- a3_m1&#45;&#45;a3_m2 -->
<g id="edge17" class="edge">
<title>a3_m1&#45;&#45;a3_m2</title>
<path fill="none" stroke="black" d="M249.95,-1295.7C249.95,-1284.85 249.95,-1270.92 249.95,-1260.1"/>
</g>
<!-- a3_m3 -->
<g id="node16" class="node">
<title>a3_m3</title>
<ellipse fill="none" stroke="black" cx="249.95" cy="-1170" rx="40.89" ry="18"/>
<text text-anchor="middle" x="249.95" y="-1166.3" font-family="Times,serif" font-size="14.00">a3_m3</text>
</g>
<!-- a3_m1&#45;&#45;a3_m3 -->
<g id="edge18" class="edge">
<title>a3_m1&#45;&#45;a3_m3</title>
<path fill="none" stroke="black" stroke-dasharray="5,2" d="M269.95,-1298.23C281.08,-1288.71 293.88,-1275.28 299.95,-1260 305.85,-1245.13 305.85,-1238.87 299.95,-1224 293.88,-1208.72 281.08,-1195.29 269.95,-1185.77"/>
</g>
<!-- a3_m2&#45;&#45;a3_m3 -->
<g id="edge19" class="edge">
<title>a3_m2&#45;&#45;a3_m3</title>
<path fill="none" stroke="black" d="M249.95,-1223.7C249.95,-1212.85 249.95,-1198.92 249.95,-1188.1"/>
</g>
<!-- a3_m2&#45;&#45;a4_m2 -->
<g id="edge20" class="edge">
<title>a3_m2&#45;&#45;a4_m2</title>
<path fill="none" stroke="black" stroke-dasharray="5,2" d="M271.44,-1226.63C312.06,-1197.85 398.15,-1128.57 421.95,-1044 434.72,-998.61 441.46,-924.65 408.95,-864 399.85,-847.03 382.78,-833.55 368.28,-824.43"/>
</g>
<!-- a3_m2&#45;&#45;a5_m2 -->
<g id="edge21" class="edge">
<title>a3_m2&#45;&#45;a5_m2</title>
<path fill="none" stroke="black" stroke-dasharray="5,2" d="M278.33,-1228.62C302.86,-1217.91 339.26,-1201.98 370.95,-1188 406.99,-1172.1 414.94,-1165.52 451.95,-1152 505.85,-1132.3 541.49,-1161.89 575.95,-1116 647.31,-1020.97 449.4,-926.73 372.26,-894.58"/>
</g>
<!-- a3_m3&#45;&#45;a1_m3 -->
<g id="edge22" class="edge">
<title>a3_m3&#45;&#45;a1_m3</title>
<path fill="none" stroke="black" d="M249.95,-1151.7C249.95,-1140.85 249.95,-1126.92 249.95,-1116.1"/>
</g>
<!-- a3_m3&#45;&#45;a4_m3 -->
<g id="edge23" class="edge">
<title>a3_m3&#45;&#45;a4_m3</title>
<path fill="none" stroke="black" stroke-dasharray="5,2" d="M267.33,-1153.57C277.79,-1143.62 290.8,-1129.97 299.95,-1116 315.14,-1092.81 326.53,-1062.54 332.71,-1043.95"/>
</g>
<!-- a3_m3&#45;&#45;a5_m3 -->
<g id="edge24" class="edge">
<title>a3_m3&#45;&#45;a5_m3</title>
<path fill="none" stroke="black" stroke-dasharray="5,2" d="M277.64,-1156.74C315.01,-1138.42 379.81,-1099.98 404.95,-1044 411.5,-1029.4 411.86,-1022.43 404.95,-1008 396.62,-990.64 379.54,-977.17 364.83,-968.15"/>
</g>
<!-- a4_m2&#45;&#45;a4_m10 -->
<g id="edge36" class="edge">
<title>a4_m2&#45;&#45;a4_m10</title>
<path fill="none" stroke="black" d="M342.95,-791.7C342.95,-780.85 342.95,-766.92 342.95,-756.1"/>
</g>
<!-- a4_m2&#45;&#45;a4_m12 -->
<g id="edge37" class="edge">
<title>a4_m2&#45;&#45;a4_m12</title>
<path fill="none" stroke="black" stroke-dasharray="5,2" d="M365.29,-794.74C377.73,-785.4 392.07,-771.98 398.95,-756 405.27,-741.3 405.27,-734.7 398.95,-720 392.17,-704.26 378.17,-691.01 365.87,-681.7"/>
</g>
<!-- a5_m2&#45;&#45;a4_m2 -->
<g id="edge48" class="edge">
<title>a5_m2&#45;&#45;a4_m2</title>
<path fill="none" stroke="black" d="M342.95,-863.7C342.95,-852.85 342.95,-838.92 342.95,-828.1"/>
</g>
<!-- a5_m2&#45;&#45;a5_m13 -->
<g id="edge49" class="edge">
<title>a5_m2&#45;&#45;a5_m13</title>
<path fill="none" stroke="black" d="M370.65,-868.65C398.74,-856.13 442.01,-836.83 470.65,-824.06"/>
</g>
<!-- a3_m7 -->
<g id="node19" class="node">
<title>a3_m7</title>
<ellipse fill="none" stroke="black" cx="322.95" cy="-1386" rx="40.89" ry="18"/>
<text text-anchor="middle" x="322.95" y="-1382.3" font-family="Times,serif" font-size="14.00">a3_m7</text>
</g>
<!-- a3_m7&#45;&#45;a3_m1 -->
<g id="edge25" class="edge">
<title>a3_m7&#45;&#45;a3_m1</title>
<path fill="none" stroke="black" d="M306.75,-1369.46C294.73,-1357.95 278.42,-1342.3 266.35,-1330.73"/>
</g>
<!-- a3_m7&#45;&#45;a3_m2 -->
<g id="edge26" class="edge">
<title>a3_m7&#45;&#45;a3_m2</title>
<path fill="none" stroke="black" stroke-dasharray="5,2" d="M330.38,-1368.13C337.46,-1349.34 345.35,-1318.64 332.95,-1296 321.94,-1275.91 299.71,-1262.33 281.03,-1253.95"/>
</g>
<!-- a3_m7&#45;&#45;a3_m3 -->
<g id="edge27" class="edge">
<title>a3_m7&#45;&#45;a3_m3</title>
<path fill="none" stroke="black" stroke-dasharray="5,2" d="M340.03,-1369.35C370.69,-1339.35 428.81,-1272.43 394.95,-1224 371.52,-1190.5 324.55,-1178.11 290.4,-1173.56"/>
</g>
<!-- a3_m9 -->
<g id="node20" class="node">
<title>a3_m9</title>
<ellipse fill="none" stroke="black" cx="367.95" cy="-1818" rx="40.89" ry="18"/>
<text text-anchor="middle" x="367.95" y="-1814.3" font-family="Times,serif" font-size="14.00">a3_m9</text>
</g>
<!-- a3_m9&#45;&#45;a3_m1 -->
<g id="edge28" class="edge">
<title>a3_m9&#45;&#45;a3_m1</title>
<path fill="none" stroke="black" stroke-dasharray="5,2" d="M326.81,-1816.8C279.13,-1814.54 200.43,-1804.35 147.95,-1764 93.11,-1721.85 98.29,-1688.53 88.95,-1620 72.17,-1496.9 188.36,-1372.97 232.99,-1330.44"/>
</g>
<!-- a3_m9&#45;&#45;a3_m2 -->
<g id="edge29" class="edge">
<title>a3_m9&#45;&#45;a3_m2</title>
<path fill="none" stroke="black" stroke-dasharray="5,2" d="M328.19,-1813.46C290.25,-1808.25 233.36,-1795.43 194.95,-1764 140.17,-1719.18 140.41,-1689.48 126.95,-1620 103.59,-1499.5 155.72,-1457.29 239.95,-1368 261.28,-1345.38 284.62,-1359.06 299.95,-1332 307.83,-1318.08 305.85,-1310.87 299.95,-1296 293.88,-1280.72 281.08,-1267.29 269.95,-1257.77"/>
</g>
<!-- a3_m9&#45;&#45;a3_m3 -->
<g id="edge30" class="edge">
<title>a3_m9&#45;&#45;a3_m3</title>
<path fill="none" stroke="black" stroke-dasharray="5,2" d="M333.76,-1808.08C311.05,-1800.31 282.62,-1786.62 266.95,-1764 248.58,-1737.49 259.95,-1724.19 257.95,-1692 248.99,-1548.12 206.74,-1496.05 272.95,-1368 284.55,-1345.56 306.13,-1354.83 316.95,-1332 337.5,-1288.62 337.86,-1267.21 316.95,-1224 308.48,-1206.51 291.14,-1193.04 276.21,-1184.06"/>
</g>
<!-- a3_m9&#45;&#45;a3_m7 -->
<g id="edge31" class="edge">
<title>a3_m9&#45;&#45;a3_m7</title>
<path fill="none" stroke="black" stroke-dasharray="5,2" d="M340.36,-1804.36C323.37,-1795.3 302.35,-1781.61 288.95,-1764 268.51,-1737.16 270.35,-1725.3 264.95,-1692 247.03,-1581.6 296.26,-1449.79 315.56,-1403.81"/>
</g>
<!-- a9_m9 -->
<g id="node21" class="node">
<title>a9_m9</title>
<ellipse fill="none" stroke="black" cx="367.95" cy="-1530" rx="40.89" ry="18"/>
<text text-anchor="middle" x="367.95" y="-1526.3" font-family="Times,serif" font-size="14.00">a9_m9</text>
</g>
<!-- a3_m9&#45;&#45;a9_m9 -->
<g id="edge32" class="edge">
<title>a3_m9&#45;&#45;a9_m9</title>
<path fill="none" stroke="black" stroke-dasharray="5,2" d="M347.33,-1802.22C335.35,-1792.61 320.89,-1779.08 311.95,-1764 270.8,-1694.64 250.99,-1655.16 288.95,-1584 299.28,-1564.62 320.2,-1551.07 337.92,-1542.52"/>
</g>
<!-- a10_m9 -->
<g id="node22" class="node">
<title>a10_m9</title>
<ellipse fill="none" stroke="black" cx="367.95" cy="-1746" rx="46.59" ry="18"/>
<text text-anchor="middle" x="367.95" y="-1742.3" font-family="Times,serif" font-size="14.00">a10_m9</text>
</g>
<!-- a3_m9&#45;&#45;a10_m9 -->
<g id="edge33" class="edge">
<title>a3_m9&#45;&#45;a10_m9</title>
<path fill="none" stroke="black" d="M367.95,-1799.7C367.95,-1788.85 367.95,-1774.92 367.95,-1764.1"/>
</g>
<!-- a11_m9 -->
<g id="node23" class="node">
<title>a11_m9</title>
<ellipse fill="none" stroke="black" cx="367.95" cy="-1674" rx="46.59" ry="18"/>
<text text-anchor="middle" x="367.95" y="-1670.3" font-family="Times,serif" font-size="14.00">a11_m9</text>
</g>
<!-- a3_m9&#45;&#45;a11_m9 -->
<g id="edge34" class="edge">
<title>a3_m9&#45;&#45;a11_m9</title>
<path fill="none" stroke="black" stroke-dasharray="5,2" d="M390.29,-1802.74C402.73,-1793.4 417.07,-1779.98 423.95,-1764 430.27,-1749.3 430.27,-1742.7 423.95,-1728 417.17,-1712.26 403.17,-1699.01 390.87,-1689.7"/>
</g>
<!-- a12_m9 -->
<g id="node24" class="node">
<title>a12_m9</title>
<ellipse fill="none" stroke="black" cx="367.95" cy="-1602" rx="46.59" ry="18"/>
<text text-anchor="middle" x="367.95" y="-1598.3" font-family="Times,serif" font-size="14.00">a12_m9</text>
</g>
<!-- a3_m9&#45;&#45;a12_m9 -->
<g id="edge35" class="edge">
<title>a3_m9&#45;&#45;a12_m9</title>
<path fill="none" stroke="black" stroke-dasharray="5,2" d="M396.13,-1804.71C412.44,-1795.93 431.56,-1782.42 440.95,-1764 462.75,-1721.24 462.75,-1698.76 440.95,-1656 431.84,-1638.14 413.59,-1624.89 397.62,-1616.1"/>
</g>
<!-- a9_m7 -->
<g id="node37" class="node">
<title>a9_m7</title>
<ellipse fill="none" stroke="black" cx="367.95" cy="-1458" rx="40.89" ry="18"/>
<text text-anchor="middle" x="367.95" y="-1454.3" font-family="Times,serif" font-size="14.00">a9_m7</text>
</g>
<!-- a9_m9&#45;&#45;a9_m7 -->
<g id="edge69" class="edge">
<title>a9_m9&#45;&#45;a9_m7</title>
<path fill="none" stroke="black" d="M367.95,-1511.7C367.95,-1500.85 367.95,-1486.92 367.95,-1476.1"/>
</g>
<!-- a9_m8 -->
<g id="node38" class="node">
<title>a9_m8</title>
<ellipse fill="none" stroke="black" cx="428.95" cy="-1386" rx="40.89" ry="18"/>
<text text-anchor="middle" x="428.95" y="-1382.3" font-family="Times,serif" font-size="14.00">a9_m8</text>
</g>
<!-- a9_m9&#45;&#45;a9_m8 -->
<g id="edge70" class="edge">
<title>a9_m9&#45;&#45;a9_m8</title>
<path fill="none" stroke="black" stroke-dasharray="5,2" d="M387.27,-1513.94C398.16,-1504.32 410.95,-1490.88 417.95,-1476 428.81,-1452.89 430.27,-1422.87 429.92,-1404.27"/>
</g>
<!-- a10_m9&#45;&#45;a9_m9 -->
<g id="edge73" class="edge">
<title>a10_m9&#45;&#45;a9_m9</title>
<path fill="none" stroke="black" stroke-dasharray="5,2" d="M345.67,-1730C333.58,-1720.59 319.58,-1707.34 311.95,-1692 290.5,-1648.91 283.46,-1627.56 303.95,-1584 311.99,-1566.9 328.56,-1553.42 342.82,-1544.34"/>
</g>
<!-- a10_m9&#45;&#45;a11_m9 -->
<g id="edge75" class="edge">
<title>a10_m9&#45;&#45;a11_m9</title>
<path fill="none" stroke="black" d="M367.95,-1727.7C367.95,-1716.85 367.95,-1702.92 367.95,-1692.1"/>
</g>
<!-- a10_m9&#45;&#45;a12_m9 -->
<g id="edge76" class="edge">
<title>a10_m9&#45;&#45;a12_m9</title>
<path fill="none" stroke="black" stroke-dasharray="5,2" d="M390.87,-1730.3C403.17,-1720.99 417.17,-1707.74 423.95,-1692 430.27,-1677.3 430.27,-1670.7 423.95,-1656 417.17,-1640.26 403.17,-1627.01 390.87,-1617.7"/>
</g>
<!-- a10_m8 -->
<g id="node39" class="node">
<title>a10_m8</title>
<ellipse fill="none" stroke="black" cx="507.95" cy="-1314" rx="46.59" ry="18"/>
<text text-anchor="middle" x="507.95" y="-1310.3" font-family="Times,serif" font-size="14.00">a10_m8</text>
</g>
<!-- a10_m9&#45;&#45;a10_m8 -->
<g id="edge74" class="edge">
<title>a10_m9&#45;&#45;a10_m8</title>
<path fill="none" stroke="black" stroke-dasharray="5,2" d="M393.2,-1730.74C408.42,-1721.22 427.4,-1707.62 440.95,-1692 488.35,-1637.32 499.55,-1618.24 516.95,-1548 536.46,-1469.22 519.89,-1370.92 511.78,-1332"/>
</g>
<!-- a11_m9&#45;&#45;a9_m9 -->
<g id="edge78" class="edge">
<title>a11_m9&#45;&#45;a9_m9</title>
<path fill="none" stroke="black" stroke-dasharray="5,2" d="M345.03,-1658.3C332.72,-1648.99 318.72,-1635.74 311.95,-1620 305.62,-1605.3 305.62,-1598.7 311.95,-1584 318.83,-1568.02 333.16,-1554.6 345.6,-1545.26"/>
</g>
<!-- a11_m9&#45;&#45;a12_m9 -->
<g id="edge80" class="edge">
<title>a11_m9&#45;&#45;a12_m9</title>
<path fill="none" stroke="black" d="M367.95,-1655.7C367.95,-1644.85 367.95,-1630.92 367.95,-1620.1"/>
</g>
<!-- a11_m8 -->
<g id="node40" class="node">
<title>a11_m8</title>
<ellipse fill="none" stroke="black" cx="507.95" cy="-1242" rx="46.59" ry="18"/>
<text text-anchor="middle" x="507.95" y="-1238.3" font-family="Times,serif" font-size="14.00">a11_m8</text>
</g>
<!-- a11_m9&#45;&#45;a11_m8 -->
<g id="edge79" class="edge">
<title>a11_m9&#45;&#45;a11_m8</title>
<path fill="none" stroke="black" stroke-dasharray="5,2" d="M386.71,-1657.33C398.15,-1647.28 412.69,-1633.62 423.95,-1620 516.69,-1507.8 545.98,-1473.55 579.95,-1332 583.68,-1316.44 587.17,-1310.28 579.95,-1296 570.98,-1278.27 552.98,-1265.02 537.22,-1256.2"/>
</g>
<!-- a12_m9&#45;&#45;a9_m9 -->
<g id="edge81" class="edge">
<title>a12_m9&#45;&#45;a9_m9</title>
<path fill="none" stroke="black" d="M367.95,-1583.7C367.95,-1572.85 367.95,-1558.92 367.95,-1548.1"/>
</g>
<!-- a12_m8 -->
<g id="node41" class="node">
<title>a12_m8</title>
<ellipse fill="none" stroke="black" cx="507.95" cy="-1170" rx="46.59" ry="18"/>
<text text-anchor="middle" x="507.95" y="-1166.3" font-family="Times,serif" font-size="14.00">a12_m8</text>
</g>
<!-- a12_m9&#45;&#45;a12_m8 -->
<g id="edge82" class="edge">
<title>a12_m9&#45;&#45;a12_m8</title>
<path fill="none" stroke="black" stroke-dasharray="5,2" d="M384.65,-1585.01C434.36,-1536.96 579.33,-1393.43 601.95,-1332 607.69,-1316.4 610.88,-1240.82 600.95,-1224 588.57,-1203.04 564.51,-1189.65 543.96,-1181.57"/>
</g>
<!-- a4_m10&#45;&#45;a4_m12 -->
<g id="edge42" class="edge">
<title>a4_m10&#45;&#45;a4_m12</title>
<path fill="none" stroke="black" d="M342.95,-719.7C342.95,-708.85 342.95,-694.92 342.95,-684.1"/>
</g>
<!-- a13_m10 -->
<g id="node27" class="node">
<title>a13_m10</title>
<ellipse fill="none" stroke="black" cx="342.95" cy="-522" rx="52.79" ry="18"/>
<text text-anchor="middle" x="342.95" y="-518.3" font-family="Times,serif" font-size="14.00">a13_m10</text>
</g>
<!-- a4_m10&#45;&#45;a13_m10 -->
<g id="edge43" class="edge">
<title>a4_m10&#45;&#45;a13_m10</title>
<path fill="none" stroke="black" stroke-dasharray="5,2" d="M365.38,-722.08C377.52,-712.69 391.52,-699.44 398.95,-684 419.77,-640.67 425.06,-619.66 404.95,-576 397.54,-559.92 382.58,-546.91 369.22,-537.8"/>
</g>
<!-- a13_m12 -->
<g id="node28" class="node">
<title>a13_m12</title>
<ellipse fill="none" stroke="black" cx="342.95" cy="-594" rx="52.79" ry="18"/>
<text text-anchor="middle" x="342.95" y="-590.3" font-family="Times,serif" font-size="14.00">a13_m12</text>
</g>
<!-- a4_m12&#45;&#45;a13_m12 -->
<g id="edge44" class="edge">
<title>a4_m12&#45;&#45;a13_m12</title>
<path fill="none" stroke="black" d="M342.95,-647.7C342.95,-636.85 342.95,-622.92 342.95,-612.1"/>
</g>
<!-- a14_m12 -->
<g id="node29" class="node">
<title>a14_m12</title>
<ellipse fill="none" stroke="black" cx="342.95" cy="-306" rx="52.79" ry="18"/>
<text text-anchor="middle" x="342.95" y="-302.3" font-family="Times,serif" font-size="14.00">a14_m12</text>
</g>
<!-- a4_m12&#45;&#45;a14_m12 -->
<g id="edge45" class="edge">
<title>a4_m12&#45;&#45;a14_m12</title>
<path fill="none" stroke="black" stroke-dasharray="5,2" d="M366.37,-650.21C379.51,-640.78 395.18,-627.44 404.95,-612 440.39,-555.96 435.2,-533.73 443.95,-468 450.35,-419.83 455.18,-399.55 426.95,-360 414.22,-342.18 393.45,-328.99 375.75,-320.23"/>
</g>
<!-- a15_m12 -->
<g id="node30" class="node">
<title>a15_m12</title>
<ellipse fill="none" stroke="black" cx="342.95" cy="-234" rx="52.79" ry="18"/>
<text text-anchor="middle" x="342.95" y="-230.3" font-family="Times,serif" font-size="14.00">a15_m12</text>
</g>
<!-- a4_m12&#45;&#45;a15_m12 -->
<g id="edge46" class="edge">
<title>a4_m12&#45;&#45;a15_m12</title>
<path fill="none" stroke="black" stroke-dasharray="5,2" d="M374.31,-652.37C392.6,-643.55 414.79,-630.1 428.95,-612 478.96,-548.06 464.99,-513.02 459.95,-432 455.88,-366.66 468.96,-339.82 428.95,-288 415.23,-270.23 393.73,-256.98 375.66,-248.17"/>
</g>
<!-- a16_m12 -->
<g id="node31" class="node">
<title>a16_m12</title>
<ellipse fill="none" stroke="black" cx="342.95" cy="-162" rx="52.79" ry="18"/>
<text text-anchor="middle" x="342.95" y="-158.3" font-family="Times,serif" font-size="14.00">a16_m12</text>
</g>
<!-- a4_m12&#45;&#45;a16_m12 -->
<g id="edge47" class="edge">
<title>a4_m12&#45;&#45;a16_m12</title>
<path fill="none" stroke="black" stroke-dasharray="5,2" d="M381,-655.49C405.27,-647.6 435.68,-634.01 454.95,-612 477.07,-586.72 472.77,-573.19 477.95,-540 500.22,-397.07 532.83,-332.4 446.95,-216 431.49,-195.05 405.34,-181.77 383.14,-173.75"/>
</g>
<!-- a13_m11 -->
<g id="node42" class="node">
<title>a13_m11</title>
<ellipse fill="none" stroke="black" cx="342.95" cy="-450" rx="52.79" ry="18"/>
<text text-anchor="middle" x="342.95" y="-446.3" font-family="Times,serif" font-size="14.00">a13_m11</text>
</g>
<!-- a13_m10&#45;&#45;a13_m11 -->
<g id="edge83" class="edge">
<title>a13_m10&#45;&#45;a13_m11</title>
<path fill="none" stroke="black" d="M342.95,-503.7C342.95,-492.85 342.95,-478.92 342.95,-468.1"/>
</g>
<!-- a13_m12&#45;&#45;a13_m10 -->
<g id="edge87" class="edge">
<title>a13_m12&#45;&#45;a13_m10</title>
<path fill="none" stroke="black" d="M342.95,-575.7C342.95,-564.85 342.95,-550.92 342.95,-540.1"/>
</g>
<!-- a13_m12&#45;&#45;a14_m12 -->
<g id="edge89" class="edge">
<title>a13_m12&#45;&#45;a14_m12</title>
<path fill="none" stroke="black" stroke-dasharray="5,2" d="M369.22,-578.2C382.58,-569.09 397.54,-556.08 404.95,-540 438.42,-467.34 438.42,-432.66 404.95,-360 397.54,-343.92 382.58,-330.91 369.22,-321.8"/>
</g>
<!-- a13_m12&#45;&#45;a15_m12 -->
<g id="edge90" class="edge">
<title>a13_m12&#45;&#45;a15_m12</title>
<path fill="none" stroke="black" stroke-dasharray="5,2" d="M375.75,-579.77C393.45,-571.01 414.22,-557.82 426.95,-540 455.18,-500.45 449.57,-480.26 443.95,-432 436.28,-366.14 441.28,-343.46 404.95,-288 395.01,-272.84 379.51,-259.59 366.5,-250.13"/>
</g>
<!-- a13_m12&#45;&#45;a16_m12 -->
<g id="edge91" class="edge">
<title>a13_m12&#45;&#45;a16_m12</title>
<path fill="none" stroke="black" stroke-dasharray="5,2" d="M377.42,-580.3C405.46,-569.24 441.82,-552.99 450.95,-540 478.62,-500.62 460.95,-480.09 458.95,-432 454.9,-334.69 476.62,-296.61 421.95,-216 410.17,-198.64 390.64,-185.46 373.94,-176.59"/>
</g>
<!-- a13_m12&#45;&#45;a13_m11 -->
<g id="edge88" class="edge">
<title>a13_m12&#45;&#45;a13_m11</title>
<path fill="none" stroke="black" stroke-dasharray="5,2" d="M369.22,-578.2C382.58,-569.09 397.54,-556.08 404.95,-540 411.64,-525.47 411.64,-518.53 404.95,-504 397.54,-487.92 382.58,-474.91 369.22,-465.8"/>
</g>
<!-- a14_m12&#45;&#45;a15_m12 -->
<g id="edge95" class="edge">
<title>a14_m12&#45;&#45;a15_m12</title>
<path fill="none" stroke="black" d="M342.95,-287.7C342.95,-276.85 342.95,-262.92 342.95,-252.1"/>
</g>
<!-- a14_m12&#45;&#45;a16_m12 -->
<g id="edge96" class="edge">
<title>a14_m12&#45;&#45;a16_m12</title>
<path fill="none" stroke="black" stroke-dasharray="5,2" d="M369.22,-290.2C382.58,-281.09 397.54,-268.08 404.95,-252 411.64,-237.47 411.64,-230.53 404.95,-216 397.54,-199.92 382.58,-186.91 369.22,-177.8"/>
</g>
<!-- a15_m12&#45;&#45;a16_m12 -->
<g id="edge98" class="edge">
<title>a15_m12&#45;&#45;a16_m12</title>
<path fill="none" stroke="black" d="M342.95,-215.7C342.95,-204.85 342.95,-190.92 342.95,-180.1"/>
</g>
<!-- a15_m11 -->
<g id="node44" class="node">
<title>a15_m11</title>
<ellipse fill="none" stroke="black" cx="342.95" cy="-18" rx="52.79" ry="18"/>
<text text-anchor="middle" x="342.95" y="-14.3" font-family="Times,serif" font-size="14.00">a15_m11</text>
</g>
<!-- a15_m12&#45;&#45;a15_m11 -->
<g id="edge97" class="edge">
<title>a15_m12&#45;&#45;a15_m11</title>
<path fill="none" stroke="black" stroke-dasharray="5,2" d="M369.22,-218.2C382.58,-209.09 397.54,-196.08 404.95,-180 425.03,-136.4 425.03,-115.6 404.95,-72 397.54,-55.92 382.58,-42.91 369.22,-33.8"/>
</g>
<!-- a16_m11 -->
<g id="node45" class="node">
<title>a16_m11</title>
<ellipse fill="none" stroke="black" cx="342.95" cy="-90" rx="52.79" ry="18"/>
<text text-anchor="middle" x="342.95" y="-86.3" font-family="Times,serif" font-size="14.00">a16_m11</text>
</g>
<!-- a16_m12&#45;&#45;a16_m11 -->
<g id="edge100" class="edge">
<title>a16_m12&#45;&#45;a16_m11</title>
<path fill="none" stroke="black" d="M342.95,-143.7C342.95,-132.85 342.95,-118.92 342.95,-108.1"/>
</g>
<!-- a17_m13 -->
<g id="node33" class="node">
<title>a17_m13</title>
<ellipse fill="none" stroke="black" cx="582.95" cy="-738" rx="52.79" ry="18"/>
<text text-anchor="middle" x="582.95" y="-734.3" font-family="Times,serif" font-size="14.00">a17_m13</text>
</g>
<!-- a5_m13&#45;&#45;a17_m13 -->
<g id="edge52" class="edge">
<title>a5_m13&#45;&#45;a17_m13</title>
<path fill="none" stroke="black" d="M518.78,-793.12C532.36,-781.66 550.62,-766.26 564.19,-754.82"/>
</g>
<!-- a17_m14 -->
<g id="node46" class="node">
<title>a17_m14</title>
<ellipse fill="none" stroke="black" cx="611.95" cy="-666" rx="52.79" ry="18"/>
<text text-anchor="middle" x="611.95" y="-662.3" font-family="Times,serif" font-size="14.00">a17_m14</text>
</g>
<!-- a17_m13&#45;&#45;a17_m14 -->
<g id="edge101" class="edge">
<title>a17_m13&#45;&#45;a17_m14</title>
<path fill="none" stroke="black" d="M589.97,-720.05C594.46,-709.21 600.27,-695.18 604.79,-684.28"/>
</g>
<!-- a7_m5 -->
<g id="node35" class="node">
<title>a7_m5</title>
<ellipse fill="none" stroke="black" cx="40.95" cy="-378" rx="40.89" ry="18"/>
<text text-anchor="middle" x="40.95" y="-374.3" font-family="Times,serif" font-size="14.00">a7_m5</text>
</g>
<!-- a6_m5&#45;&#45;a7_m5 -->
<g id="edge54" class="edge">
<title>a6_m5&#45;&#45;a7_m5</title>
<path fill="none" stroke="black" d="M40.95,-431.7C40.95,-420.85 40.95,-406.92 40.95,-396.1"/>
</g>
<!-- a6_m5&#45;&#45;a8_m5 -->
<g id="edge55" class="edge">
<title>a6_m5&#45;&#45;a8_m5</title>
<path fill="none" stroke="black" stroke-dasharray="5,2" d="M59.49,-433.53C70.1,-423.77 82.87,-410.32 90.95,-396 107.26,-367.07 106.46,-356.91 110.95,-324 117.43,-276.44 132.31,-258.98 110.95,-216 101.99,-197.98 83.66,-184.45 68,-175.58"/>
</g>
<!-- a7_m5&#45;&#45;a7_m6 -->
<g id="edge60" class="edge">
<title>a7_m5&#45;&#45;a7_m6</title>
<path fill="none" stroke="black" d="M40.95,-359.7C40.95,-348.85 40.95,-334.92 40.95,-324.1"/>
</g>
<!-- a7_m5&#45;&#45;a8_m5 -->
<g id="edge61" class="edge">
<title>a7_m5&#45;&#45;a8_m5</title>
<path fill="none" stroke="black" stroke-dasharray="5,2" d="M60.95,-362.23C72.08,-352.71 84.88,-339.28 90.95,-324 108.67,-279.39 108.67,-260.61 90.95,-216 84.88,-200.72 72.08,-187.29 60.95,-177.77"/>
</g>
<!-- a9_m7&#45;&#45;a3_m7 -->
<g id="edge64" class="edge">
<title>a9_m7&#45;&#45;a3_m7</title>
<path fill="none" stroke="black" d="M357.28,-1440.41C350.11,-1429.25 340.69,-1414.6 333.53,-1403.47"/>
</g>
<!-- a9_m7&#45;&#45;a9_m8 -->
<g id="edge65" class="edge">
<title>a9_m7&#45;&#45;a9_m8</title>
<path fill="none" stroke="black" d="M382.09,-1440.76C391.95,-1429.46 405.04,-1414.44 414.88,-1403.15"/>
</g>
<!-- a9_m8&#45;&#45;a10_m8 -->
<g id="edge66" class="edge">
<title>a9_m8&#45;&#45;a10_m8</title>
<path fill="none" stroke="black" d="M446.48,-1369.46C459.48,-1357.95 477.14,-1342.3 490.19,-1330.73"/>
</g>
<!-- a9_m8&#45;&#45;a11_m8 -->
<g id="edge67" class="edge">
<title>a9_m8&#45;&#45;a11_m8</title>
<path fill="none" stroke="black" stroke-dasharray="5,2" d="M468.59,-1381.26C500.26,-1375.95 542.74,-1363.1 563.95,-1332 572.96,-1318.78 570.27,-1310.7 563.95,-1296 557.17,-1280.26 543.17,-1267.01 530.87,-1257.7"/>
</g>
<!-- a9_m8&#45;&#45;a12_m8 -->
<g id="edge68" class="edge">
<title>a9_m8&#45;&#45;a12_m8</title>
<path fill="none" stroke="black" stroke-dasharray="5,2" d="M465.07,-1377.35C505.28,-1368.02 566.41,-1351.1 579.95,-1332 607.7,-1292.84 601.6,-1266.84 579.95,-1224 570.98,-1206.27 552.98,-1193.02 537.22,-1184.2"/>
</g>
<!-- a10_m8&#45;&#45;a11_m8 -->
<g id="edge71" class="edge">
<title>a10_m8&#45;&#45;a11_m8</title>
<path fill="none" stroke="black" d="M507.95,-1295.7C507.95,-1284.85 507.95,-1270.92 507.95,-1260.1"/>
</g>
<!-- a10_m8&#45;&#45;a12_m8 -->
<g id="edge72" class="edge">
<title>a10_m8&#45;&#45;a12_m8</title>
<path fill="none" stroke="black" stroke-dasharray="5,2" d="M530.87,-1298.3C543.17,-1288.99 557.17,-1275.74 563.95,-1260 570.27,-1245.3 570.27,-1238.7 563.95,-1224 557.17,-1208.26 543.17,-1195.01 530.87,-1185.7"/>
</g>
<!-- a11_m8&#45;&#45;a12_m8 -->
<g id="edge77" class="edge">
<title>a11_m8&#45;&#45;a12_m8</title>
<path fill="none" stroke="black" d="M507.95,-1223.7C507.95,-1212.85 507.95,-1198.92 507.95,-1188.1"/>
</g>
<!-- a14_m11 -->
<g id="node43" class="node">
<title>a14_m11</title>
<ellipse fill="none" stroke="black" cx="342.95" cy="-378" rx="52.79" ry="18"/>
<text text-anchor="middle" x="342.95" y="-374.3" font-family="Times,serif" font-size="14.00">a14_m11</text>
</g>
<!-- a13_m11&#45;&#45;a14_m11 -->
<g id="edge84" class="edge">
<title>a13_m11&#45;&#45;a14_m11</title>
<path fill="none" stroke="black" d="M342.95,-431.7C342.95,-420.85 342.95,-406.92 342.95,-396.1"/>
</g>
<!-- a13_m11&#45;&#45;a15_m11 -->
<g id="edge85" class="edge">
<title>a13_m11&#45;&#45;a15_m11</title>
<path fill="none" stroke="black" stroke-dasharray="5,2" d="M372.75,-435.01C409.58,-415.85 470.52,-377.61 495.95,-324 544.64,-221.34 525.26,-159.64 452.95,-72 435.41,-50.74 407.31,-37.41 383.91,-29.43"/>
</g>
<!-- a13_m11&#45;&#45;a16_m11 -->
<g id="edge86" class="edge">
<title>a13_m11&#45;&#45;a16_m11</title>
<path fill="none" stroke="black" stroke-dasharray="5,2" d="M385.82,-439.54C439.98,-425.04 530.92,-391.59 570.95,-324 629.49,-225.14 451.82,-136.56 375.75,-104.11"/>
</g>
<!-- a14_m11&#45;&#45;a14_m12 -->
<g id="edge92" class="edge">
<title>a14_m11&#45;&#45;a14_m12</title>
<path fill="none" stroke="black" d="M342.95,-359.7C342.95,-348.85 342.95,-334.92 342.95,-324.1"/>
</g>
<!-- a14_m11&#45;&#45;a15_m11 -->
<g id="edge93" class="edge">
<title>a14_m11&#45;&#45;a15_m11</title>
<path fill="none" stroke="black" stroke-dasharray="5,2" d="M368.18,-362.19C403.11,-339.58 461.95,-292.9 461.95,-235 461.95,-235 461.95,-235 461.95,-161 461.95,-118.33 453.22,-104.81 425.95,-72 411.85,-55.04 390.88,-41.71 373.55,-32.67"/>
</g>
<!-- a14_m11&#45;&#45;a16_m11 -->
<g id="edge94" class="edge">
<title>a14_m11&#45;&#45;a16_m11</title>
<path fill="none" stroke="black" stroke-dasharray="5,2" d="M383.33,-366.3C418.36,-356.11 465.1,-340 475.95,-324 529.14,-245.55 413.72,-144.59 364.14,-106.48"/>
</g>
<!-- a16_m11&#45;&#45;a15_m11 -->
<g id="edge99" class="edge">
<title>a16_m11&#45;&#45;a15_m11</title>
<path fill="none" stroke="black" d="M342.95,-71.7C342.95,-60.85 342.95,-46.92 342.95,-36.1"/>
</g>
<!-- a18_m14 -->
<g id="node47" class="node">
<title>a18_m14</title>
<ellipse fill="none" stroke="black" cx="649.95" cy="-594" rx="52.79" ry="18"/>
<text text-anchor="middle" x="649.95" y="-590.3" font-family="Times,serif" font-size="14.00">a18_m14</text>
</g>
<!-- a17_m14&#45;&#45;a18_m14 -->
<g id="edge102" class="edge">
<title>a17_m14&#45;&#45;a18_m14</title>
<path fill="none" stroke="black" d="M621.15,-648.05C627.12,-637.05 634.87,-622.76 640.83,-611.79"/>
</g>
<!-- a19_m14 -->
<g id="node48" class="node">
<title>a19_m14</title>
<ellipse fill="none" stroke="black" cx="732.95" cy="-522" rx="52.79" ry="18"/>
<text text-anchor="middle" x="732.95" y="-518.3" font-family="Times,serif" font-size="14.00">a19_m14</text>
</g>
<!-- a17_m14&#45;&#45;a19_m14 -->
<g id="edge103" class="edge">
<title>a17_m14&#45;&#45;a19_m14</title>
<path fill="none" stroke="black" stroke-dasharray="5,2" d="M650.42,-653.43C671.57,-645.16 696.57,-631.91 711.95,-612 728.15,-591.02 732.15,-559.54 732.97,-540.18"/>
</g>
<!-- a20_m14 -->
<g id="node49" class="node">
<title>a20_m14</title>
<ellipse fill="none" stroke="black" cx="732.95" cy="-450" rx="52.79" ry="18"/>
<text text-anchor="middle" x="732.95" y="-446.3" font-family="Times,serif" font-size="14.00">a20_m14</text>
</g>
<!-- a17_m14&#45;&#45;a20_m14 -->
<g id="edge104" class="edge">
<title>a17_m14&#45;&#45;a20_m14</title>
<path fill="none" stroke="black" stroke-dasharray="5,2" d="M652.71,-654.38C702.31,-638.87 782.93,-604.56 810.95,-540 817.32,-525.32 818.43,-518.14 810.95,-504 801.37,-485.91 782.55,-472.85 765.79,-464.22"/>
</g>
<!-- a18_m14&#45;&#45;a19_m14 -->
<g id="edge105" class="edge">
<title>a18_m14&#45;&#45;a19_m14</title>
<path fill="none" stroke="black" d="M668.78,-577.12C682.36,-565.66 700.62,-550.26 714.19,-538.82"/>
</g>
<!-- a18_m14&#45;&#45;a20_m14 -->
<g id="edge106" class="edge">
<title>a18_m14&#45;&#45;a20_m14</title>
<path fill="none" stroke="black" stroke-dasharray="5,2" d="M700.46,-588.92C733.27,-583.35 773.75,-570.31 794.95,-540 804.11,-526.89 801.64,-518.53 794.95,-504 787.54,-487.92 772.58,-474.91 759.22,-465.8"/>
</g>
<!-- a19_m14&#45;&#45;a20_m14 -->
<g id="edge107" class="edge">
<title>a19_m14&#45;&#45;a20_m14</title>
<path fill="none" stroke="black" d="M732.95,-503.7C732.95,-492.85 732.95,-478.92 732.95,-468.1"/>
</g>
</g>
</svg>
