<?xml version="1.0" encoding="UTF-8" standalone="no"?>
<!DOCTYPE svg PUBLIC "-//W3C//DTD SVG 1.1//EN"
 "http://www.w3.org/Graphics/SVG/1.1/DTD/svg11.dtd">
<!-- Generated by graphviz version 2.43.0 (0)
 -->
<!-- Pages: 1 -->
<svg width="228pt" height="188pt"
 viewBox="0.00 0.00 227.89 188.00" xmlns="http://www.w3.org/2000/svg" xmlns:xlink="http://www.w3.org/1999/xlink">
<g id="graph0" class="graph" transform="scale(1 1) rotate(0) translate(4 184)">
<polygon fill="white" stroke="transparent" points="-4,4 -4,-184 223.89,-184 223.89,4 -4,4"/>
<!-- a0_m0 -->
<g id="node1" class="node">
<title>a0_m0</title>
<ellipse fill="none" stroke="black" cx="40.95" cy="-90" rx="40.89" ry="18"/>
<text text-anchor="middle" x="40.95" y="-86.3" font-family="Times,serif" font-size="14.00">a0_m0</text>
</g>
<!-- a2_m0 -->
<g id="node2" class="node">
<title>a2_m0</title>
<ellipse fill="none" stroke="black" cx="40.95" cy="-18" rx="40.89" ry="18"/>
<text text-anchor="middle" x="40.95" y="-14.3" font-family="Times,serif" font-size="14.00">a2_m0</text>
</g>
<!-- a0_m0&#45;&#45;a2_m0 -->
<g id="edge1" class="edge">
<title>a0_m0&#45;&#45;a2_m0</title>
<path fill="none" stroke="black" d="M40.95,-71.7C40.95,-60.85 40.95,-46.92 40.95,-36.1"/>
</g>
<!-- a1_m0 -->
<g id="node3" class="node">
<title>a1_m0</title>
<ellipse fill="none" stroke="black" cx="74.95" cy="-162" rx="40.89" ry="18"/>
<text text-anchor="middle" x="74.95" y="-158.3" font-family="Times,serif" font-size="14.00">a1_m0</text>
</g>
<!-- a1_m0&#45;&#45;a0_m0 -->
<g id="edge2" class="edge">
<title>a1_m0&#45;&#45;a0_m0</title>
<path fill="none" stroke="black" d="M66.72,-144.05C61.37,-133.05 54.43,-118.76 49.1,-107.79"/>
</g>
<!-- a1_m0&#45;&#45;a2_m0 -->
<g id="edge4" class="edge">
<title>a1_m0&#45;&#45;a2_m0</title>
<path fill="none" stroke="black" stroke-dasharray="5,2" d="M83.34,-144.05C91.21,-125.72 100.45,-95.93 90.95,-72 84.88,-56.72 72.08,-43.29 60.95,-33.77"/>
</g>
<!-- a1_m1 -->
<g id="node4" class="node">
<title>a1_m1</title>
<ellipse fill="none" stroke="black" cx="178.95" cy="-90" rx="40.89" ry="18"/>
<text text-anchor="middle" x="178.95" y="-86.3" font-family="Times,serif" font-size="14.00">a1_m1</text>
</g>
<!-- a1_m0&#45;&#45;a1_m1 -->
<g id="edge3" class="edge">
<title>a1_m0&#45;&#45;a1_m1</title>
<path fill="none" stroke="black" d="M96.5,-146.5C114.34,-134.48 139.58,-117.49 157.43,-105.49"/>
</g>
<!-- a3_m1 -->
<g id="node5" class="node">
<title>a3_m1</title>
<ellipse fill="none" stroke="black" cx="178.95" cy="-18" rx="40.89" ry="18"/>
<text text-anchor="middle" x="178.95" y="-14.3" font-family="Times,serif" font-size="14.00">a3_m1</text>
</g>
<!-- a1_m1&#45;&#45;a3_m1 -->
<g id="edge5" class="edge">
<title>a1_m1&#45;&#45;a3_m1</title>
<path fill="none" stroke="black" d="M178.95,-71.7C178.95,-60.85 178.95,-46.92 178.95,-36.1"/>
</g>
</g>
</svg>
