<?xml version="1.0" encoding="UTF-8" standalone="no"?>
<!DOCTYPE svg PUBLIC "-//W3C//DTD SVG 1.1//EN"
 "http://www.w3.org/Graphics/SVG/1.1/DTD/svg11.dtd">
<!-- Generated by graphviz version 2.44.1 (20200629.0846)
 -->
<!-- Pages: 1 -->
<svg width="204pt" height="332pt"
 viewBox="0.00 0.00 204.19 332.00" xmlns="http://www.w3.org/2000/svg" xmlns:xlink="http://www.w3.org/1999/xlink">
<g id="graph0" class="graph" transform="scale(1 1) rotate(0) translate(4 328)">
<polygon fill="white" stroke="transparent" points="-4,4 -4,-328 200.19,-328 200.19,4 -4,4"/>
<!-- a0_m0 -->
<g id="node1" class="node">
<title>a0_m0</title>
<ellipse fill="none" stroke="black" cx="35.1" cy="-234" rx="35.19" ry="18"/>
<text text-anchor="middle" x="35.1" y="-230.3" font-family="Times New Roman,serif" font-size="14.00">a0_m0</text>
</g>
<!-- a2_m0 -->
<g id="node2" class="node">
<title>a2_m0</title>
<ellipse fill="none" stroke="black" cx="35.1" cy="-162" rx="35.19" ry="18"/>
<text text-anchor="middle" x="35.1" y="-158.3" font-family="Times New Roman,serif" font-size="14.00">a2_m0</text>
</g>
<!-- a0_m0&#45;&gt;a2_m0 -->
<g id="edge1" class="edge">
<title>a0_m0&#45;&gt;a2_m0</title>
<path fill="none" stroke="black" d="M35.1,-215.7C35.1,-207.98 35.1,-198.71 35.1,-190.11"/>
<polygon fill="black" stroke="black" points="38.6,-190.1 35.1,-180.1 31.6,-190.1 38.6,-190.1"/>
</g>
<!-- a1_m0 -->
<g id="node3" class="node">
<title>a1_m0</title>
<ellipse fill="none" stroke="black" cx="66.1" cy="-306" rx="35.19" ry="18"/>
<text text-anchor="middle" x="66.1" y="-302.3" font-family="Times New Roman,serif" font-size="14.00">a1_m0</text>
</g>
<!-- a1_m0&#45;&gt;a0_m0 -->
<g id="edge2" class="edge">
<title>a1_m0&#45;&gt;a0_m0</title>
<path fill="none" stroke="black" d="M58.59,-288.05C55.01,-279.97 50.65,-270.12 46.66,-261.11"/>
<polygon fill="black" stroke="black" points="49.78,-259.52 42.53,-251.79 43.38,-262.35 49.78,-259.52"/>
</g>
<!-- a1_m0&#45;&gt;a2_m0 -->
<g id="edge4" class="edge">
<title>a1_m0&#45;&gt;a2_m0</title>
<path fill="none" stroke="black" stroke-dasharray="5,2" d="M73.3,-288.11C80.01,-269.84 87.79,-240.09 79.1,-216 74.99,-204.63 67.27,-193.98 59.43,-185.25"/>
<polygon fill="black" stroke="black" points="61.74,-182.6 52.29,-177.81 56.69,-187.45 61.74,-182.6"/>
</g>
<!-- a1_m1 -->
<g id="node4" class="node">
<title>a1_m1</title>
<ellipse fill="none" stroke="black" cx="161.1" cy="-234" rx="35.19" ry="18"/>
<text text-anchor="middle" x="161.1" y="-230.3" font-family="Times New Roman,serif" font-size="14.00">a1_m1</text>
</g>
<!-- a1_m0&#45;&gt;a1_m1 -->
<g id="edge3" class="edge">
<title>a1_m0&#45;&gt;a1_m1</title>
<path fill="none" stroke="black" d="M85.32,-290.83C99.23,-280.59 118.22,-266.59 133.71,-255.18"/>
<polygon fill="black" stroke="black" points="135.93,-257.89 141.9,-249.14 131.77,-252.26 135.93,-257.89"/>
</g>
<!-- a3_m1 -->
<g id="node5" class="node">
<title>a3_m1</title>
<ellipse fill="none" stroke="black" cx="161.1" cy="-162" rx="35.19" ry="18"/>
<text text-anchor="middle" x="161.1" y="-158.3" font-family="Times New Roman,serif" font-size="14.00">a3_m1</text>
</g>
<!-- a1_m1&#45;&gt;a3_m1 -->
<g id="edge5" class="edge">
<title>a1_m1&#45;&gt;a3_m1</title>
<path fill="none" stroke="black" d="M161.1,-215.7C161.1,-207.98 161.1,-198.71 161.1,-190.11"/>
<polygon fill="black" stroke="black" points="164.6,-190.1 161.1,-180.1 157.6,-190.1 164.6,-190.1"/>
</g>
<!-- a3_m2 -->
<g id="node6" class="node">
<title>a3_m2</title>
<ellipse fill="none" stroke="black" cx="161.1" cy="-90" rx="35.19" ry="18"/>
<text text-anchor="middle" x="161.1" y="-86.3" font-family="Times New Roman,serif" font-size="14.00">a3_m2</text>
</g>
<!-- a3_m1&#45;&gt;a3_m2 -->
<g id="edge6" class="edge">
<title>a3_m1&#45;&gt;a3_m2</title>
<path fill="none" stroke="black" d="M161.1,-143.7C161.1,-135.98 161.1,-126.71 161.1,-118.11"/>
<polygon fill="black" stroke="black" points="164.6,-118.1 161.1,-108.1 157.6,-118.1 164.6,-118.1"/>
</g>
<!-- a4_m2 -->
<g id="node7" class="node">
<title>a4_m2</title>
<ellipse fill="none" stroke="black" cx="161.1" cy="-18" rx="35.19" ry="18"/>
<text text-anchor="middle" x="161.1" y="-14.3" font-family="Times New Roman,serif" font-size="14.00">a4_m2</text>
</g>
<!-- a3_m2&#45;&gt;a4_m2 -->
<g id="edge7" class="edge">
<title>a3_m2&#45;&gt;a4_m2</title>
<path fill="none" stroke="black" d="M161.1,-71.7C161.1,-63.98 161.1,-54.71 161.1,-46.11"/>
<polygon fill="black" stroke="black" points="164.6,-46.1 161.1,-36.1 157.6,-46.1 164.6,-46.1"/>
</g>
</g>
</svg>
