<?xml version="1.0" encoding="UTF-8" standalone="no"?>
<!DOCTYPE svg PUBLIC "-//W3C//DTD SVG 1.1//EN"
 "http://www.w3.org/Graphics/SVG/1.1/DTD/svg11.dtd">
<!-- Generated by graphviz version 2.43.0 (0)
 -->
<!-- Pages: 1 -->
<svg width="293pt" height="908pt"
 viewBox="0.00 0.00 293.50 908.00" xmlns="http://www.w3.org/2000/svg" xmlns:xlink="http://www.w3.org/1999/xlink">
<g id="graph0" class="graph" transform="scale(1 1) rotate(0) translate(4 904)">
<polygon fill="white" stroke="transparent" points="-4,4 -4,-904 289.5,-904 289.5,4 -4,4"/>
<!-- a0_m0 -->
<g id="node1" class="node">
<title>a0_m0</title>
<ellipse fill="none" stroke="black" cx="99.04" cy="-234" rx="40.89" ry="18"/>
<text text-anchor="middle" x="99.04" y="-230.3" font-family="Times,serif" font-size="14.00">a0_m0</text>
</g>
<!-- a2_m0 -->
<g id="node2" class="node">
<title>a2_m0</title>
<ellipse fill="none" stroke="black" cx="99.04" cy="-162" rx="40.89" ry="18"/>
<text text-anchor="middle" x="99.04" y="-158.3" font-family="Times,serif" font-size="14.00">a2_m0</text>
</g>
<!-- a0_m0&#45;&#45;a2_m0 -->
<g id="edge1" class="edge">
<title>a0_m0&#45;&#45;a2_m0</title>
<path fill="none" stroke="black" d="M99.04,-215.7C99.04,-204.85 99.04,-190.92 99.04,-180.1"/>
</g>
<!-- a2_m4 -->
<g id="node8" class="node">
<title>a2_m4</title>
<ellipse fill="none" stroke="black" cx="99.04" cy="-90" rx="40.89" ry="18"/>
<text text-anchor="middle" x="99.04" y="-86.3" font-family="Times,serif" font-size="14.00">a2_m4</text>
</g>
<!-- a2_m0&#45;&#45;a2_m4 -->
<g id="edge9" class="edge">
<title>a2_m0&#45;&#45;a2_m4</title>
<path fill="none" stroke="black" d="M99.04,-143.7C99.04,-132.85 99.04,-118.92 99.04,-108.1"/>
</g>
<!-- a1_m0 -->
<g id="node3" class="node">
<title>a1_m0</title>
<ellipse fill="none" stroke="black" cx="99.04" cy="-306" rx="40.89" ry="18"/>
<text text-anchor="middle" x="99.04" y="-302.3" font-family="Times,serif" font-size="14.00">a1_m0</text>
</g>
<!-- a1_m0&#45;&#45;a0_m0 -->
<g id="edge2" class="edge">
<title>a1_m0&#45;&#45;a0_m0</title>
<path fill="none" stroke="black" d="M99.04,-287.7C99.04,-276.85 99.04,-262.92 99.04,-252.1"/>
</g>
<!-- a1_m0&#45;&#45;a2_m0 -->
<g id="edge3" class="edge">
<title>a1_m0&#45;&#45;a2_m0</title>
<path fill="none" stroke="black" stroke-dasharray="5,2" d="M119.04,-290.23C130.17,-280.71 142.96,-267.28 149.04,-252 154.94,-237.13 154.94,-230.87 149.04,-216 142.96,-200.72 130.17,-187.29 119.04,-177.77"/>
</g>
<!-- a1_m1 -->
<g id="node4" class="node">
<title>a1_m1</title>
<ellipse fill="none" stroke="black" cx="99.04" cy="-378" rx="40.89" ry="18"/>
<text text-anchor="middle" x="99.04" y="-374.3" font-family="Times,serif" font-size="14.00">a1_m1</text>
</g>
<!-- a1_m1&#45;&#45;a1_m0 -->
<g id="edge4" class="edge">
<title>a1_m1&#45;&#45;a1_m0</title>
<path fill="none" stroke="black" d="M99.04,-359.7C99.04,-348.85 99.04,-334.92 99.04,-324.1"/>
</g>
<!-- a1_m3 -->
<g id="node5" class="node">
<title>a1_m3</title>
<ellipse fill="none" stroke="black" cx="107.04" cy="-810" rx="40.89" ry="18"/>
<text text-anchor="middle" x="107.04" y="-806.3" font-family="Times,serif" font-size="14.00">a1_m3</text>
</g>
<!-- a1_m3&#45;&#45;a1_m0 -->
<g id="edge5" class="edge">
<title>a1_m3&#45;&#45;a1_m0</title>
<path fill="none" stroke="black" stroke-dasharray="5,2" d="M83.81,-795.15C69.4,-785.61 51.35,-771.83 39.04,-756 12.53,-721.91 0.04,-710.19 0.04,-667 0.04,-667 0.04,-667 0.04,-593 0.04,-487.18 -0.53,-453.49 49.04,-360 56.74,-345.47 69.51,-332.03 80.22,-322.32"/>
</g>
<!-- a1_m3&#45;&#45;a1_m1 -->
<g id="edge6" class="edge">
<title>a1_m3&#45;&#45;a1_m1</title>
<path fill="none" stroke="black" stroke-dasharray="5,2" d="M88.18,-793.7C77.45,-784 64.68,-770.56 57.04,-756 38.24,-720.19 38.04,-707.45 38.04,-667 38.04,-667 38.04,-667 38.04,-593 38.04,-521.28 20.3,-497.71 49.04,-432 55.62,-416.93 68.42,-403.5 79.41,-393.93"/>
</g>
<!-- a4_m3 -->
<g id="node6" class="node">
<title>a4_m3</title>
<ellipse fill="none" stroke="black" cx="107.04" cy="-738" rx="40.89" ry="18"/>
<text text-anchor="middle" x="107.04" y="-734.3" font-family="Times,serif" font-size="14.00">a4_m3</text>
</g>
<!-- a1_m3&#45;&#45;a4_m3 -->
<g id="edge7" class="edge">
<title>a1_m3&#45;&#45;a4_m3</title>
<path fill="none" stroke="black" d="M107.04,-791.7C107.04,-780.85 107.04,-766.92 107.04,-756.1"/>
</g>
<!-- a5_m3 -->
<g id="node7" class="node">
<title>a5_m3</title>
<ellipse fill="none" stroke="black" cx="107.04" cy="-666" rx="40.89" ry="18"/>
<text text-anchor="middle" x="107.04" y="-662.3" font-family="Times,serif" font-size="14.00">a5_m3</text>
</g>
<!-- a1_m3&#45;&#45;a5_m3 -->
<g id="edge8" class="edge">
<title>a1_m3&#45;&#45;a5_m3</title>
<path fill="none" stroke="black" stroke-dasharray="5,2" d="M127.04,-794.23C138.17,-784.71 150.96,-771.28 157.04,-756 162.94,-741.13 162.94,-734.87 157.04,-720 150.96,-704.72 138.17,-691.29 127.04,-681.77"/>
</g>
<!-- a4_m3&#45;&#45;a5_m3 -->
<g id="edge20" class="edge">
<title>a4_m3&#45;&#45;a5_m3</title>
<path fill="none" stroke="black" d="M107.04,-719.7C107.04,-708.85 107.04,-694.92 107.04,-684.1"/>
</g>
<!-- a4_m2 -->
<g id="node12" class="node">
<title>a4_m2</title>
<ellipse fill="none" stroke="black" cx="199.04" cy="-450" rx="40.89" ry="18"/>
<text text-anchor="middle" x="199.04" y="-446.3" font-family="Times,serif" font-size="14.00">a4_m2</text>
</g>
<!-- a4_m3&#45;&#45;a4_m2 -->
<g id="edge19" class="edge">
<title>a4_m3&#45;&#45;a4_m2</title>
<path fill="none" stroke="black" stroke-dasharray="5,2" d="M126.07,-721.79C136.85,-712.12 149.63,-698.68 157.04,-684 194.35,-610.06 198.94,-508.16 199.21,-468.13"/>
</g>
<!-- a5_m2 -->
<g id="node14" class="node">
<title>a5_m2</title>
<ellipse fill="none" stroke="black" cx="107.04" cy="-594" rx="40.89" ry="18"/>
<text text-anchor="middle" x="107.04" y="-590.3" font-family="Times,serif" font-size="14.00">a5_m2</text>
</g>
<!-- a5_m3&#45;&#45;a5_m2 -->
<g id="edge23" class="edge">
<title>a5_m3&#45;&#45;a5_m2</title>
<path fill="none" stroke="black" d="M107.04,-647.7C107.04,-636.85 107.04,-622.92 107.04,-612.1"/>
</g>
<!-- a6_m4 -->
<g id="node9" class="node">
<title>a6_m4</title>
<ellipse fill="none" stroke="black" cx="99.04" cy="-18" rx="40.89" ry="18"/>
<text text-anchor="middle" x="99.04" y="-14.3" font-family="Times,serif" font-size="14.00">a6_m4</text>
</g>
<!-- a2_m4&#45;&#45;a6_m4 -->
<g id="edge10" class="edge">
<title>a2_m4&#45;&#45;a6_m4</title>
<path fill="none" stroke="black" d="M99.04,-71.7C99.04,-60.85 99.04,-46.92 99.04,-36.1"/>
</g>
<!-- a3_m1 -->
<g id="node10" class="node">
<title>a3_m1</title>
<ellipse fill="none" stroke="black" cx="99.04" cy="-450" rx="40.89" ry="18"/>
<text text-anchor="middle" x="99.04" y="-446.3" font-family="Times,serif" font-size="14.00">a3_m1</text>
</g>
<!-- a3_m1&#45;&#45;a1_m1 -->
<g id="edge11" class="edge">
<title>a3_m1&#45;&#45;a1_m1</title>
<path fill="none" stroke="black" d="M99.04,-431.7C99.04,-420.85 99.04,-406.92 99.04,-396.1"/>
</g>
<!-- a3_m2 -->
<g id="node11" class="node">
<title>a3_m2</title>
<ellipse fill="none" stroke="black" cx="107.04" cy="-522" rx="40.89" ry="18"/>
<text text-anchor="middle" x="107.04" y="-518.3" font-family="Times,serif" font-size="14.00">a3_m2</text>
</g>
<!-- a3_m2&#45;&#45;a3_m1 -->
<g id="edge12" class="edge">
<title>a3_m2&#45;&#45;a3_m1</title>
<path fill="none" stroke="black" d="M105.06,-503.7C103.82,-492.85 102.23,-478.92 100.99,-468.1"/>
</g>
<!-- a3_m2&#45;&#45;a4_m2 -->
<g id="edge13" class="edge">
<title>a3_m2&#45;&#45;a4_m2</title>
<path fill="none" stroke="black" d="M126.55,-506.15C142.05,-494.36 163.65,-477.92 179.24,-466.07"/>
</g>
<!-- a3_m3 -->
<g id="node13" class="node">
<title>a3_m3</title>
<ellipse fill="none" stroke="black" cx="107.04" cy="-882" rx="40.89" ry="18"/>
<text text-anchor="middle" x="107.04" y="-878.3" font-family="Times,serif" font-size="14.00">a3_m3</text>
</g>
<!-- a3_m3&#45;&#45;a1_m3 -->
<g id="edge14" class="edge">
<title>a3_m3&#45;&#45;a1_m3</title>
<path fill="none" stroke="black" d="M107.04,-863.7C107.04,-852.85 107.04,-838.92 107.04,-828.1"/>
</g>
<!-- a3_m3&#45;&#45;a4_m3 -->
<g id="edge17" class="edge">
<title>a3_m3&#45;&#45;a4_m3</title>
<path fill="none" stroke="black" stroke-dasharray="5,2" d="M127.04,-866.23C138.17,-856.71 150.96,-843.28 157.04,-828 162.94,-813.13 162.94,-806.87 157.04,-792 150.96,-776.72 138.17,-763.29 127.04,-753.77"/>
</g>
<!-- a3_m3&#45;&#45;a5_m3 -->
<g id="edge18" class="edge">
<title>a3_m3&#45;&#45;a5_m3</title>
<path fill="none" stroke="black" stroke-dasharray="5,2" d="M133.3,-867.94C148.22,-858.96 165.57,-845.49 174.04,-828 194.95,-784.79 194.95,-763.21 174.04,-720 165.57,-702.51 148.22,-689.04 133.3,-680.06"/>
</g>
<!-- a3_m3&#45;&#45;a3_m1 -->
<g id="edge15" class="edge">
<title>a3_m3&#45;&#45;a3_m1</title>
<path fill="none" stroke="black" stroke-dasharray="5,2" d="M139.13,-870.62C158.79,-862.42 182.34,-848.82 194.04,-828 217.54,-786.15 198.1,-767.83 194.04,-720 185.78,-622.95 203.73,-589.47 157.04,-504 148.47,-488.32 133.48,-474.81 120.89,-465.35"/>
</g>
<!-- a3_m3&#45;&#45;a3_m2 -->
<g id="edge16" class="edge">
<title>a3_m3&#45;&#45;a3_m2</title>
<path fill="none" stroke="black" stroke-dasharray="5,2" d="M148,-879.98C185.57,-876.6 239.32,-865.06 266.04,-828 339.88,-725.54 183.18,-584.2 126.47,-538.16"/>
</g>
<!-- a5_m2&#45;&#45;a3_m2 -->
<g id="edge21" class="edge">
<title>a5_m2&#45;&#45;a3_m2</title>
<path fill="none" stroke="black" d="M107.04,-575.7C107.04,-564.85 107.04,-550.92 107.04,-540.1"/>
</g>
<!-- a5_m2&#45;&#45;a4_m2 -->
<g id="edge22" class="edge">
<title>a5_m2&#45;&#45;a4_m2</title>
<path fill="none" stroke="black" stroke-dasharray="5,2" d="M124.24,-577.45C134.63,-567.45 147.63,-553.79 157.04,-540 172.92,-516.71 185.78,-486.47 192.91,-467.91"/>
</g>
</g>
</svg>
